<svg width="100" height="100" viewBox="0 0 182 183" fill="none" xmlns="http://www.w3.org/2000/svg">
<path d="M85.7639 181.842C75.8017 181.206 66.9027 178.854 54.7827 173.654C47.7853 170.652 43.2081 168.306 39.3208 165.731C33.8841 162.129 28.9537 157.985 28.3315 156.494C28.1349 156.023 26.7755 154.41 25.3105 152.91C23.8455 151.409 22.2519 149.729 21.7692 149.178C21.2864 148.626 20.7515 148.228 20.5804 148.294C20.1815 148.447 18.8783 147.101 19.0915 146.756C19.18 146.612 19.3492 146.555 19.4676 146.628C19.586 146.701 18.7087 145.475 17.5181 143.904C16.3245 142.328 15.1818 141.046 14.9708 141.046C14.4399 141.046 13.8854 140.157 14.3513 140.053C14.5911 139.999 14.3341 139.426 13.4536 138.052C12.775 136.992 11.7927 135.311 11.2707 134.315C10.7487 133.32 10.2061 132.548 10.0648 132.6C9.74562 132.719 8.23946 129.725 8.52836 129.546C8.64368 129.475 8.19625 128.163 7.53412 126.63C6.79404 124.917 6.29331 123.386 6.2343 122.657L6.13826 121.47L7.36384 123.724C8.03791 124.964 9.10861 127.079 9.74316 128.425C11.6969 132.567 12.9449 134.198 16.08 136.708C16.6045 137.128 17.6161 138.302 18.3279 139.318C22.2758 144.951 29.3523 152.416 35.1172 157.029C40.0231 160.954 49.1778 166.933 53.9809 169.348C57.2863 171.01 65.855 173.463 71.9332 174.487C78.9233 175.665 88.7627 176.314 95.2674 176.025C97.747 175.916 100.523 175.873 101.437 175.932C105.291 176.179 109.968 176.032 111.739 175.61C115.463 174.721 118.539 173.301 122.554 170.615C123.729 169.829 125.491 168.728 126.469 168.168C127.448 167.608 128.162 167.149 128.055 167.148C127.948 167.148 126.559 167.617 124.97 168.191C113.84 172.215 102.575 173.654 89.3354 172.742C82.8722 172.297 80.7034 172.058 76.9969 171.386C70.5658 170.219 65.0316 168.408 57.896 165.134C49.1906 161.14 44.9789 158.915 43.3669 157.459C42.4772 156.655 41.5369 155.166 41.5118 154.521C41.5048 154.352 40.8413 153.902 40.0363 153.52L38.5726 152.826L39.277 152.6C39.6645 152.476 40.2239 152.154 40.5203 151.884L41.0592 151.394L39.9361 150.254C38.8239 149.124 38.379 148.933 37.7675 149.321C37.4593 149.516 37.6439 150.49 38.3354 152.316C38.5127 152.785 38.5075 152.785 37.9433 152.305C36.6833 151.235 36.567 151.179 36.7051 151.707C37.404 154.379 25.2205 142.819 24.4288 140.058C24.3043 139.624 24.2025 138.967 24.2025 138.598C24.2025 137.69 22.404 135.171 20.2738 133.097C19.3356 132.183 18.0372 130.62 17.3883 129.623C13.5286 123.692 10.1052 111.782 9.48633 102.132C9.29262 99.112 9.06211 97.2983 8.74756 96.3188C7.95013 93.8356 7.72821 90.7078 8.03265 86.2428C8.72047 76.155 11.1817 67.5703 16.5044 56.6933C18.8537 51.8924 20.7649 48.6912 24.4397 43.4017C25.9405 41.2416 27.201 39.3443 27.2408 39.1857C27.3777 38.641 23.5026 42.8667 21.8142 45.1033C19.46 48.2217 17.5715 51.2916 15.666 55.0979C13.0374 60.3484 11.7051 63.9998 8.89372 73.6587C8.15301 76.2035 7.46047 78.4415 7.35469 78.632C7.04943 79.1819 6.75705 76.919 6.80407 74.3705C6.84723 72.0347 7.2042 70.4215 9.11224 63.942C9.59071 62.3172 9.94711 60.8223 9.90429 60.6201C9.70527 59.6802 6.62796 68.5456 5.33329 73.7887C3.22867 82.3118 2.51074 88.8462 2.49983 99.5771C2.49562 104.11 2.41319 107.526 2.31757 107.17C1.4302 103.861 1.21129 87.3687 1.9735 81.2516C2.66513 75.701 4.28788 67.6872 5.21304 65.2538C5.58847 64.2664 5.2422 64.5524 4.7329 65.6505L4.26516 66.659L4.40585 65.7098C4.61004 64.3322 7.34738 57.5334 9.46914 53.1341C21.0464 29.1293 38.4936 14.313 61.8504 8.65156C65.5578 7.75293 73.4612 5.41416 73.842 5.10297C73.9338 5.02786 72.7326 4.99955 71.1726 5.03977C69.4818 5.08349 68.3362 5.02166 68.3362 4.88689C68.3362 4.38003 69.7306 3.21749 70.6048 2.99549C73.1424 2.35108 73.5317 2.32842 76.5451 2.6498C80.0555 3.0242 86.5391 2.91684 88.3863 2.45373L89.5727 2.15631L88.7422 1.95901C87.2656 1.60827 74.9151 1.41703 74.3197 1.7357C73.9802 1.91739 73.7936 1.9301 73.7936 1.77158C73.7936 1.61583 72.6431 1.51706 70.6497 1.50166C67.0578 1.47391 67.2824 1.35778 72.4886 0.550871C76.9652 -0.142959 83.3844 -0.183706 89.6633 0.441869C93.506 0.824691 94.531 0.853926 95.8963 0.619805C98.007 0.257833 98.7217 0.275416 99.2871 0.703064C99.5404 0.894671 99.9141 1.05338 100.118 1.05577C100.321 1.05857 101.395 1.4423 102.504 1.9094C104 2.53938 105.44 2.90622 108.08 3.3299C119.828 5.21523 130.922 9.56627 140.695 16.1221C145.233 19.1662 148.883 22.1566 153.831 26.8845C155.291 28.2794 156.859 29.6743 157.316 29.9842C158.647 30.8876 160.135 32.4075 160.009 32.7357C159.945 32.902 160.541 33.7532 161.333 34.6273C162.125 35.5014 162.773 36.3125 162.773 36.4298C162.773 36.5473 162.978 36.6432 163.227 36.6432C163.498 36.6432 164.033 37.1222 164.553 37.8296C165.032 38.4821 165.533 39.016 165.666 39.016C165.799 39.016 165.845 39.1821 165.767 39.3852C165.682 39.6065 165.99 40.2484 166.535 40.9869C168.101 43.1056 169.64 45.6248 169.418 45.7032C169.077 45.8235 170.427 47.7294 171.065 48.0295C171.522 48.2442 171.575 48.3464 171.314 48.508C171.051 48.6707 171.038 48.8282 171.252 49.2629C171.401 49.565 171.586 50.0416 171.664 50.322C171.926 51.2614 173.192 52.7782 173.715 52.7782C174.119 52.7782 174.187 52.8833 174.075 53.333C173.994 53.6532 174.08 54.0796 174.279 54.3414C174.467 54.5909 174.631 54.6882 174.642 54.5577C174.653 54.4273 174.874 54.9611 175.134 55.7441C175.597 57.1433 175.666 57.403 175.964 58.8288C176.045 59.2203 176.334 59.941 176.605 60.4304C176.999 61.1433 177.235 61.3202 177.791 61.3202C178.31 61.3202 178.45 61.2307 178.348 60.9643C178.12 60.372 178.335 60.5589 179.025 61.5553C179.502 62.2441 179.614 62.584 179.433 62.8018C179.257 63.0135 179.28 63.2747 179.512 63.6937C179.693 64.0195 179.844 64.5334 179.849 64.8356C179.853 65.1379 179.971 65.5985 180.111 65.8593C180.293 66.1995 180.29 66.4237 180.1 66.653C179.918 66.872 179.912 67.0208 180.082 67.1256C180.218 67.2097 180.447 67.4991 180.592 67.7686C180.787 68.1332 180.784 68.2156 180.583 68.0908C180.434 67.9986 180.145 68.0618 179.941 68.2312C179.637 68.4831 179.599 68.8431 179.733 70.2045C179.927 72.1665 180.013 72.3591 180.517 71.9499C180.843 71.6847 180.873 71.7027 180.732 72.0791C180.35 73.097 180.298 73.6917 180.531 74.3611C180.684 74.7994 180.693 75.1248 180.556 75.2098C180.166 75.4508 180.315 76.2539 180.807 76.5611C181.361 76.9073 181.459 77.5741 180.926 77.3694C180.73 77.2943 180.57 77.2561 180.571 77.2846C180.571 77.3132 180.889 78.9381 181.278 80.8957C182.08 84.94 182.234 88.7498 181.638 89.7936C181.384 90.2368 181.296 91.3319 181.29 94.1239C181.283 97.2839 181.227 97.8611 180.926 97.8611C180.658 97.8611 180.57 98.1489 180.57 99.0277C180.57 99.6693 180.46 100.231 180.325 100.276C180.056 100.366 179.517 102.321 179.273 104.09C179.144 105.019 179.182 105.217 179.488 105.217C179.738 105.217 179.858 105.439 179.858 105.904C179.858 106.388 180.096 106.8 180.662 107.297C181.175 107.748 181.399 108.111 181.282 108.301C181.181 108.465 181.143 108.986 181.199 109.459C181.318 110.461 180.941 111.238 180.596 110.703C180.18 110.057 179.858 110.719 179.858 112.223C179.858 113.394 179.785 113.716 179.541 113.622C179.367 113.555 179.003 113.692 178.733 113.926C178.288 114.312 176.68 118.056 175.555 121.326C175.313 122.029 175.018 122.723 174.899 122.868C174.78 123.013 173.729 124.84 172.564 126.928C171.399 129.016 169.752 131.792 168.903 133.097C168.055 134.402 167.168 135.843 166.932 136.3C166.696 136.757 166.438 137.249 166.359 137.394C165.917 138.199 161.962 143.877 160.435 145.898C151.886 157.214 141.05 166.303 128.603 172.598C117.534 178.197 106.871 181.125 94.9083 181.853C90.6297 182.113 89.9842 182.112 85.7639 181.842ZM79.2299 179.384C79.0701 179.225 73.0513 178.487 72.9264 178.612C72.8284 178.71 73.4016 178.82 76.641 179.327C77.4987 179.462 79.3478 179.502 79.2299 179.384ZM118.05 167.753C123.966 166.191 130.858 163.403 136.297 160.371C138.91 158.915 144.2 155.445 145.333 154.445C146.124 153.747 146.282 153.67 140.876 156.624C139.599 157.321 138.467 157.892 138.362 157.892C138.256 157.892 137.976 158.107 137.739 158.369C137.502 158.631 137.192 158.821 137.049 158.791C136.907 158.761 135.177 159.558 133.205 160.56C129.287 162.552 125.935 163.979 121.724 165.448C118.811 166.465 114.013 168.567 114.606 168.568C114.801 168.568 116.351 168.201 118.05 167.753ZM99.4197 166.702C99.4197 166.618 98.9126 166.591 98.2927 166.643C97.5415 166.705 97.3142 166.789 97.6112 166.895C98.1137 167.076 99.4197 166.936 99.4197 166.702ZM101.819 165.431C102.605 165.012 103.475 164.802 104.904 164.685C106.299 164.572 107.267 164.343 108.14 163.919C109.415 163.301 109.892 162.694 108.767 163.122C108.427 163.251 107.546 163.396 106.81 163.443C106.073 163.491 103.388 163.676 100.843 163.855L96.2165 164.18L98.5893 164.299L100.962 164.418L98.8265 164.739C97.652 164.915 96.3174 165.136 95.8606 165.229L95.0301 165.397L95.742 165.802C96.8415 166.428 100.353 166.213 101.819 165.431ZM81.6238 165.62C81.6238 165.268 81.3748 165.158 79.9629 164.886C79.185 164.736 79.1571 164.751 79.5214 165.13C79.7354 165.353 80.2693 165.619 80.7079 165.723C81.1464 165.826 81.5319 165.922 81.5646 165.936C81.5972 165.948 81.6238 165.807 81.6238 165.62ZM93.725 164.03C92.6158 163.921 90.6938 163.729 89.454 163.605L87.1999 163.379L89.6474 163.485C92.4051 163.605 92.7787 163.256 90.1729 162.995C88.2081 162.797 85.9786 163.235 86.3946 163.736C86.715 164.122 87.8129 164.214 92.1827 164.223C95.5235 164.23 95.6181 164.217 93.725 164.03ZM118.547 163.443C119.728 162.65 120.808 161.564 120.611 161.367C120.527 161.283 120.114 161.214 119.693 161.214C118.859 161.214 118.639 161.518 118.639 162.671V163.376L118.105 162.799C117.624 162.278 117.444 162.236 116.284 162.37L114.997 162.519L115.877 163.291C116.942 164.223 117.348 164.246 118.547 163.443ZM82.3357 163.714C82.3357 163.417 81.3081 163.107 80.8438 163.264C80.3504 163.432 80.3615 163.452 81.0306 163.605C81.9615 163.818 82.3357 163.85 82.3357 163.714ZM101.081 163.125C102.141 162.936 102.137 162.934 100.606 162.909C99.7579 162.894 98.9037 162.986 98.7079 163.113C98.2647 163.399 99.5036 163.405 101.081 163.125ZM77.0953 161.076C77.2581 160.914 77.0328 160.791 76.4096 160.704C75.9848 160.644 75.7977 160.745 75.7336 161.068C75.6577 161.451 75.742 161.491 76.3205 161.345C76.692 161.252 77.0407 161.131 77.0953 161.076ZM130.195 159.641C130.04 159.486 128.42 160.106 127.875 160.528C127.441 160.865 127.664 160.82 128.783 160.343C129.599 159.996 130.235 159.68 130.195 159.641ZM67.743 159.068C67.482 158.949 66.679 158.637 65.9585 158.375C65.2379 158.113 64.0634 157.537 63.3484 157.095C61.2179 155.779 58.8451 154.55 58.8451 154.763C58.8451 155.097 59.8542 155.911 60.9806 156.484C62.6077 157.313 67.4594 159.288 67.8617 159.286C68.0929 159.283 68.0513 159.208 67.743 159.068ZM60.9806 155.167C60.9806 155.104 60.3132 154.717 59.4976 154.309C57.8146 153.465 57.8135 153.609 59.4949 154.596C60.6098 155.25 60.9806 155.392 60.9806 155.167ZM39.7113 142.367C39.0769 141.643 38.4714 141.05 38.3658 141.049C38.2603 141.046 38.7351 141.683 39.4209 142.462C40.1067 143.241 40.7121 143.835 40.7663 143.78C40.8205 143.726 40.3457 143.09 39.7113 142.367ZM36.3037 135.372C36.3037 135.135 34.4635 132.741 34.2813 132.741C33.9416 132.741 34.2714 133.507 35.0303 134.482C35.8486 135.532 36.3037 135.85 36.3037 135.372ZM41.9128 123.607C41.7029 123.059 41.3044 123.385 41.4592 123.977C41.5446 124.304 41.6665 124.388 41.8243 124.23C41.9546 124.1 41.9945 123.819 41.9128 123.607ZM24.0495 115.716C23.7666 114.577 23.2559 113.521 22.9875 113.521C22.718 113.521 22.7506 113.654 23.4396 115.359C23.8948 116.486 24.2994 116.723 24.0495 115.716ZM21.4724 106.975C21.0041 105.43 20.5588 104.109 20.483 104.039C20.3287 103.896 20.5409 105.663 20.8959 107.477C21.1389 108.718 22.0716 110.516 22.2319 110.051C22.2825 109.905 21.9407 108.52 21.4724 106.975ZM30.9702 106.007C30.8293 104.88 30.8888 104.478 31.3393 103.516C31.7098 102.725 32.019 102.369 32.3359 102.369C32.6603 102.369 32.7522 102.257 32.6489 101.988C32.5685 101.778 32.2277 100.524 31.8918 99.1999C31.3705 97.1455 31.304 96.498 31.4376 94.7763C31.5671 93.1085 31.4889 92.2534 30.9858 89.8355C30.4313 87.1707 30.4087 86.851 30.7305 86.2288C31.206 85.3092 31.1799 85.2096 30.5072 85.3784C29.9706 85.513 29.9124 85.434 29.6624 84.2299C29.3607 82.7764 29.5163 81.635 30.4462 78.4808C31.0477 76.4405 31.0308 75.4773 30.3537 73.2177C30.0621 72.2444 30.0483 72.2349 28.9301 72.2349H27.8009L27.5629 73.3619C27.4321 73.9818 27.0361 76.2502 26.683 78.4028L26.041 82.3166L26.4468 85.1652C26.67 86.732 27.0551 89.5999 27.3026 91.5384C27.8129 95.5354 28.2447 97.9434 28.9574 100.769C29.6544 103.532 30.8412 107.352 31.0023 107.352C31.077 107.352 31.0627 106.747 30.9702 106.007ZM29.4226 89.5756C29.4226 89.1122 29.7196 88.616 29.922 88.7411C30.2743 88.9588 30.1605 89.7935 29.7785 89.7935C29.5827 89.7935 29.4226 89.6954 29.4226 89.5756ZM14.3414 51.8568C14.9235 50.6976 15.3339 49.6833 15.2533 49.6027C14.8411 49.1904 14.3993 49.6388 13.3859 51.498C12.4922 53.1375 12.3378 53.581 12.6023 53.7485C12.7835 53.8632 13.0108 53.9588 13.1073 53.9608C13.2039 53.9636 13.7592 53.016 14.3414 51.8568ZM91.5895 2.23765C91.1221 1.93555 90.5724 1.93555 90.7591 2.23765C90.8398 2.36811 91.1396 2.47331 91.4256 2.47131C91.8482 2.4685 91.8789 2.42463 91.5895 2.23765ZM72.0762 172.673C72.3713 172.616 72.7984 172.619 73.0253 172.677C73.2521 172.737 73.0107 172.783 72.4887 172.781C71.9667 172.778 71.781 172.73 72.0762 172.673ZM68.8108 172.365C68.4549 172.251 68.8345 172.226 69.7599 172.303C70.6082 172.375 71.3468 172.471 71.4011 172.518C71.5926 172.684 69.3966 172.554 68.8108 172.365ZM37.0727 156.583C35.9972 155.863 35.1172 155.216 35.1172 155.146C35.1172 154.984 35.3146 155.101 37.4307 156.518C38.9006 157.502 39.3718 157.892 39.0896 157.892C39.0558 157.892 38.1482 157.303 37.0727 156.583ZM2.26865 110.496C2.18304 110.137 2.05752 109.657 1.98967 109.428C1.91358 109.172 1.99381 109.013 2.19818 109.013C2.39718 109.013 2.62795 109.441 2.77445 110.081C2.96377 110.908 2.95188 111.149 2.72151 111.149C2.558 111.149 2.35425 110.855 2.26865 110.496ZM0.71183 101.914C0.71183 101.794 0.646961 101.527 0.567804 101.321C0.47336 101.075 0.555239 100.946 0.805138 100.946C1.05368 100.946 1.18641 101.152 1.18641 101.539C1.18641 101.865 1.07968 102.132 0.949163 102.132C0.818707 102.132 0.71183 102.034 0.71183 101.914ZM0 90.2483C0 89.0096 0.0780496 88.5933 0.296603 88.6656C0.484384 88.7276 0.619002 89.3442 0.663422 90.3463C0.721014 91.646 0.667612 91.929 0.366819 91.929C0.0705107 91.929 0 91.6062 0 90.2483ZM14.7113 35.1143C14.7113 34.7686 15.743 33.3442 15.916 33.4511C16.1372 33.5879 15.1929 35.2115 14.8892 35.2165C14.7913 35.2193 14.7113 35.1722 14.7113 35.1143ZM22.1336 27.1237C21.9207 26.9109 22.1378 26.5914 23.0572 25.7649C25.804 23.2953 26.1734 23.3082 23.8894 25.794C22.7592 27.0239 22.3464 27.3366 22.1336 27.1237ZM31.7953 19.0804C32.9557 18.035 36.7489 15.335 39.151 13.8448C41.589 12.3323 45.704 10.3491 50.1845 8.52737C53.8049 7.05529 54.5811 6.64474 56.3254 5.27958C57.755 4.1607 58.6503 4.09652 59.7715 5.03258L60.5613 5.69194L58.4575 6.67562C57.3004 7.21663 54.3884 8.48476 51.9865 9.49364C47.7498 11.2731 40.7313 14.6787 34.1682 18.1395C31.5864 19.5009 31.126 19.6834 31.7953 19.0804ZM46.7853 7.45227C46.8323 7.31142 47.2159 6.97765 47.6378 6.71051C48.2277 6.33701 48.4048 6.30228 48.4048 6.56011C48.4048 6.7445 48.0213 7.07829 47.5524 7.30188C47.0835 7.52546 46.7384 7.59314 46.7853 7.45227ZM56.8045 3.86011C56.567 3.47579 56.9559 3.27368 58.7671 2.84022C61.3738 2.21641 61.5994 2.52544 59.1447 3.35739C57.7707 3.82307 56.8975 4.01065 56.8045 3.86011Z" 



fill="rgb(255 65 82)"/>



<path d="M82.8145 118.502C82.4545 117.806 82.5349 117.219 83.0623 116.691C83.3175 116.436 83.9849 116.369 86.2607 116.369H89.1366V110.801V105.232L88.5477 105.228C87.3013 105.22 84.8932 104.562 83.3542 103.808C81.1133 102.711 78.7748 100.366 77.7264 98.1645C76.2892 95.1467 76.2273 94.7199 76.129 87.1535L76.0403 80.3187L72.3134 84.0412L68.5864 87.7636L67.8261 87.0267C66.6563 85.8928 65.4517 83.8849 64.8076 81.9951C64.0698 79.8302 63.9744 76.5528 64.5896 74.4994C65.6017 71.1212 67.9909 68.1241 70.8729 66.6175C72.944 65.5347 74.1153 65.1946 76.3049 65.0401C79.6244 64.8058 82.983 65.9291 85.684 68.1769L87.0427 69.3076L83.1125 73.242L79.1824 77.1764H86.7886H94.3947L95.3529 73.9104L96.3112 70.6444L99.2024 68.9861C104.369 66.0227 105.072 65.6993 105.715 65.9921C106.5 66.35 106.827 67.1386 106.509 67.9074C106.314 68.377 105.46 68.9555 102.621 70.5406L98.9817 72.5719L98.2745 74.8206L97.5672 77.0694L101.391 77.1765C104.469 77.2627 105.257 77.3464 105.427 77.6049C105.561 77.8073 105.611 80.8569 105.564 85.8502C105.494 93.2769 105.46 93.8726 105.018 95.3421C104.228 97.9698 103.163 99.8212 101.475 101.501C99.6321 103.335 97.7215 104.351 95.0707 104.908L93.2059 105.299V110.834V116.369H96.5289H99.8519L100.195 117.089C100.494 117.714 100.5 117.89 100.243 118.427L99.9465 119.046L91.5502 119.102L83.1539 119.158L82.8145 118.502ZM89.3655 89.6819C90.0052 89.4923 92.216 88.4876 94.2782 87.4493C98.7843 85.1807 99.5613 84.9474 101.403 85.3096C102.136 85.4537 102.905 85.662 103.111 85.7722C103.46 85.959 103.486 85.753 103.486 82.7527V79.5327H90.957H78.4284V82.8502V86.1676L79.4457 86.914C83.0382 89.5501 86.5267 90.5234 89.3655 89.6819ZM68.3643 82.8815C66.7781 79.8163 66.7361 76.6755 68.2406 73.6314C70.8658 68.3196 77.4749 66.3968 82.5309 69.4739C83.4987 70.0628 83.5386 70.069 83.8887 69.6821C84.2319 69.303 84.2056 69.2517 83.351 68.6326C81.5843 67.3529 78.4364 66.539 76.1797 66.7785C70.3636 67.3957 66.0014 72.057 65.9475 77.7123C65.9229 80.2919 66.6028 82.565 67.9851 84.5242C68.3789 85.0823 68.4363 85.1007 68.7893 84.7813C69.1508 84.4541 69.13 84.3612 68.3643 82.8815ZM72.646 80.9248L74.6721 78.8902H71.7145H68.757L68.8988 79.5862C69.0823 80.4865 70.2149 82.9593 70.4438 82.9593C70.5406 82.9593 71.5316 82.0438 72.646 80.9248ZM74.7876 77.0123C74.7876 76.9217 73.8477 75.9111 72.6987 74.7665L70.6098 72.6855L70.0415 73.5927C69.5545 74.3701 68.7911 76.4514 68.7911 77.0016C68.7911 77.098 70.1403 77.1769 71.7893 77.1769C73.4384 77.1769 74.7876 77.1029 74.7876 77.0123ZM76.1975 69.7347C75.9744 69.5115 73.8984 70.1834 72.9473 70.7865L71.9371 71.4272L74.0583 73.557L76.1797 75.6869L76.2394 72.7617C76.2723 71.1528 76.2538 69.7906 76.1975 69.7347ZM81.748 71.0387C81.1194 70.5472 79.722 69.9505 78.8032 69.7813L78.0001 69.6335V72.6008V75.568L80.0882 73.4709C82.1088 71.4415 82.1624 71.3629 81.748 71.0387Z" fill="white"/>
</svg>
