<?xml version="1.0" encoding="UTF-8" standalone="no"?>
<svg
   xmlns:dc="http://purl.org/dc/elements/1.1/"
   xmlns:cc="http://creativecommons.org/ns#"
   xmlns:rdf="http://www.w3.org/1999/02/22-rdf-syntax-ns#"
   xmlns:svg="http://www.w3.org/2000/svg"
   xmlns="http://www.w3.org/2000/svg"
   xmlns:sodipodi="http://sodipodi.sourceforge.net/DTD/sodipodi-0.dtd"
   xmlns:inkscape="http://www.inkscape.org/namespaces/inkscape"
   width="100"
   height="100"
   viewBox="0 0 491 492"
   fill="none"
   version="1.1"
   id="svg849"
   sodipodi:docname="fruitscopy.svg"
   inkscape:version="1.0.2-2 (e86c870879, 2021-01-15)">
  <metadata
     id="metadata855">
    <rdf:RDF>
      <cc:Work
         rdf:about="">
        <dc:format>image/svg+xml</dc:format>
        <dc:type
           rdf:resource="http://purl.org/dc/dcmitype/StillImage" />
      </cc:Work>
    </rdf:RDF>
  </metadata>
  <defs
     id="defs853" />
  <sodipodi:namedview
     pagecolor="#ffffff"
     bordercolor="#666666"
     borderopacity="1"
     objecttolerance="10"
     gridtolerance="10"
     guidetolerance="10"
     inkscape:pageopacity="0"
     inkscape:pageshadow="2"
     inkscape:window-width="1646"
     inkscape:window-height="955"
     id="namedview851"
     showgrid="false"
     inkscape:zoom="4.8295393"
     inkscape:cx="50.229545"
     inkscape:cy="77.443601"
     inkscape:window-x="-8"
     inkscape:window-y="-8"
     inkscape:window-maximized="1"
     inkscape:current-layer="svg849" />
  <path
     d="M231.327 490.475C204.456 488.757 180.453 482.413 147.762 468.388C128.889 460.291 116.543 453.964 106.058 447.018C91.3938 437.302 78.0955 426.125 76.4171 422.104C75.887 420.835 72.2202 416.484 68.2688 412.436C64.3173 408.388 60.019 403.858 58.7169 402.37C57.4148 400.882 55.9718 399.809 55.5102 399.986C54.4343 400.399 50.9194 396.768 51.4943 395.837C51.7332 395.451 52.1897 395.296 52.5089 395.494C52.8283 395.691 50.4619 392.383 47.2507 388.144C44.0312 383.893 40.9491 380.436 40.38 380.436C38.9479 380.436 37.4525 378.04 38.709 377.758C39.3558 377.614 38.6625 376.068 36.2876 372.36C34.4574 369.503 31.808 364.968 30.4 362.283C28.992 359.597 27.5282 357.515 27.1471 357.656C26.2862 357.975 22.2238 349.9 23.003 349.418C23.3141 349.226 22.1072 345.687 20.3213 341.552C18.3251 336.931 16.9744 332.803 16.8153 330.836L16.5564 327.636L19.8621 333.716C21.6803 337.06 24.5682 342.765 26.2798 346.393C31.5494 357.565 34.9156 361.966 43.3718 368.735C44.7866 369.867 47.5149 373.035 49.4347 375.775C60.0831 390.97 79.1703 411.105 94.7199 423.546C107.952 434.134 132.645 450.26 145.6 456.774C154.516 461.257 177.627 467.873 194.022 470.636C212.876 473.813 239.415 475.562 256.96 474.785C263.648 474.488 271.136 474.375 273.6 474.533C283.996 475.198 296.612 474.804 301.387 473.664C311.433 471.268 319.729 467.436 330.56 460.191C333.728 458.072 338.48 455.102 341.12 453.592C343.76 452.081 345.684 450.843 345.395 450.841C345.107 450.841 341.363 452.104 337.075 453.654C307.056 464.508 276.669 468.388 240.96 465.928C223.527 464.727 217.677 464.084 207.68 462.271C190.333 459.124 175.406 454.238 156.16 445.408C132.679 434.635 121.319 428.634 116.971 424.705C114.572 422.537 112.036 418.521 111.968 416.781C111.949 416.327 110.159 415.113 107.988 414.082L104.04 412.209L105.94 411.601C106.985 411.266 108.494 410.398 109.293 409.67L110.747 408.347L107.717 405.271C104.717 402.226 103.518 401.71 101.868 402.755C101.037 403.282 101.535 405.91 103.4 410.836C103.878 412.099 103.864 412.098 102.342 410.806C98.9439 407.918 98.6303 407.767 99.0028 409.191C100.888 416.4 68.0258 385.219 65.8903 377.773C65.5547 376.602 65.2799 374.83 65.2799 373.835C65.2799 371.384 60.429 364.591 54.6833 358.996C52.153 356.532 48.6507 352.315 46.9005 349.626C36.4899 333.627 27.2562 301.504 25.5869 275.476C25.0644 267.33 24.4427 262.438 23.5943 259.796C21.4434 253.098 20.8448 244.662 21.666 232.619C23.5212 205.409 30.1597 182.254 44.5164 152.916C50.853 139.967 56.0079 131.332 65.9199 117.065C69.9679 111.239 73.3679 106.122 73.4754 105.694C73.8447 104.225 63.3923 115.622 58.8383 121.655C52.4883 130.066 47.3949 138.346 42.2551 148.613C35.1652 162.775 31.5716 172.624 23.9886 198.676C21.9907 205.54 20.1226 211.576 19.8373 212.09C19.014 213.573 18.2252 207.47 18.3521 200.596C18.4685 194.296 19.4314 189.944 24.5779 172.468C25.8684 168.085 26.8299 164.053 26.7144 163.508C26.1776 160.972 17.8773 184.885 14.3852 199.027C8.70853 222.016 6.77199 239.641 6.74255 268.584C6.73121 280.81 6.50899 290.026 6.25108 289.064C3.85762 280.139 3.26693 235.655 5.3228 219.156C7.1883 204.185 11.5655 182.569 14.0609 176.006C15.0735 173.343 14.1395 174.114 12.7658 177.076L11.5042 179.796L11.8836 177.236C12.4343 173.52 19.8175 155.182 25.5404 143.316C56.7672 78.5689 103.827 38.6058 166.826 23.3354C176.826 20.9116 198.143 14.6032 199.17 13.7639C199.418 13.5613 196.178 13.485 191.97 13.5935C187.41 13.7114 184.32 13.5447 184.32 13.1812C184.32 11.814 188.081 8.67839 190.439 8.0796C197.283 6.34147 198.333 6.28034 206.461 7.14717C215.93 8.15702 233.418 7.86746 238.4 6.61833L241.6 5.81612L239.36 5.28394C235.377 4.33792 202.065 3.82208 200.459 4.68162C199.543 5.17167 199.04 5.20597 199.04 4.77839C199.04 4.3583 195.937 4.09189 190.56 4.05035C180.872 3.97552 181.477 3.66228 195.52 1.48584C207.595 -0.385596 224.909 -0.495502 241.844 1.19183C252.209 2.2244 254.974 2.30325 258.656 1.67177C264.35 0.695441 266.277 0.742866 267.802 1.89634C268.486 2.41315 269.494 2.84122 270.042 2.84768C270.591 2.85524 273.488 3.89023 276.48 5.15014C280.515 6.84934 284.399 7.83879 291.52 8.98157C323.207 14.0668 353.128 25.8026 379.489 43.4854C391.729 51.6959 401.574 59.7619 414.921 72.5144C418.858 76.2767 423.088 80.0388 424.32 80.8748C427.911 83.3116 431.923 87.4111 431.583 88.2964C431.411 88.7449 433.019 91.0408 435.155 93.3984C437.292 95.7561 439.04 97.944 439.04 98.2605C439.04 98.5772 439.591 98.836 440.265 98.836C440.996 98.836 442.439 100.128 443.84 102.036C445.132 103.796 446.483 105.236 446.843 105.236C447.203 105.236 447.325 105.684 447.115 106.232C446.886 106.829 447.717 108.56 449.188 110.552C453.409 116.267 457.562 123.061 456.962 123.273C456.043 123.597 459.684 128.738 461.406 129.548C462.638 130.127 462.781 130.402 462.076 130.838C461.366 131.277 461.331 131.702 461.909 132.874C462.311 133.689 462.811 134.975 463.022 135.731C463.727 138.265 467.143 142.356 468.553 142.356C469.644 142.356 469.827 142.639 469.523 143.852C469.306 144.716 469.538 145.866 470.073 146.573C470.582 147.245 471.024 147.508 471.054 147.156C471.084 146.804 471.68 148.244 472.379 150.356C473.628 154.13 473.816 154.83 474.618 158.676C474.839 159.732 475.616 161.676 476.347 162.996C477.411 164.919 478.047 165.396 479.546 165.396C480.946 165.396 481.324 165.154 481.048 164.436C480.435 162.838 481.014 163.343 482.876 166.03C484.163 167.888 484.463 168.805 483.976 169.392C483.502 169.963 483.564 170.668 484.19 171.798C484.676 172.677 485.085 174.063 485.097 174.878C485.108 175.693 485.428 176.936 485.804 177.639C486.295 178.557 486.286 179.161 485.774 179.78C485.283 180.371 485.268 180.772 485.726 181.055C486.093 181.281 486.712 182.062 487.101 182.789C487.627 183.772 487.621 183.995 487.078 183.658C486.676 183.409 485.896 183.58 485.345 184.037C484.526 184.716 484.424 185.687 484.786 189.359C485.308 194.651 485.541 195.171 486.899 194.067C487.78 193.352 487.86 193.4 487.479 194.416C486.449 197.161 486.308 198.765 486.937 200.571C487.35 201.753 487.375 202.63 487.004 202.86C485.952 203.51 486.355 205.676 487.682 206.505C489.177 207.438 489.441 209.237 488.002 208.685C487.474 208.482 487.043 208.379 487.045 208.456C487.045 208.533 487.904 212.916 488.952 218.196C491.116 229.105 491.532 239.381 489.922 242.196C489.239 243.391 489.002 246.345 488.985 253.876C488.966 262.399 488.814 263.956 488.002 263.956C487.279 263.956 487.042 264.732 487.042 267.103C487.042 268.833 486.745 270.348 486.382 270.47C485.656 270.711 484.201 275.985 483.543 280.756C483.197 283.264 483.299 283.796 484.123 283.796C484.799 283.796 485.122 284.396 485.122 285.65C485.122 286.955 485.764 288.066 487.291 289.407C488.675 290.623 489.28 291.602 488.963 292.115C488.69 292.557 488.589 293.962 488.741 295.237C489.06 297.94 488.044 300.037 487.114 298.594C485.99 296.85 485.122 298.636 485.122 302.694C485.122 305.852 484.926 306.72 484.268 306.468C483.798 306.288 482.817 306.656 482.088 307.288C480.888 308.328 476.55 318.428 473.517 327.246C472.863 329.144 472.067 331.016 471.746 331.406C471.425 331.797 468.591 336.724 465.449 342.356C462.307 347.988 457.864 355.476 455.575 358.996C453.286 362.516 450.893 366.404 450.257 367.636C449.621 368.868 448.926 370.195 448.712 370.585C447.519 372.758 436.852 388.072 432.733 393.523C409.674 424.044 380.447 448.56 346.875 465.54C317.018 480.641 288.258 488.541 255.991 490.503C244.451 491.205 242.71 491.201 231.327 490.475ZM213.703 483.845C213.272 483.414 197.038 481.424 196.701 481.761C196.437 482.026 197.982 482.323 206.72 483.691C209.033 484.053 214.021 484.163 213.703 483.845ZM318.41 452.472C334.368 448.258 352.957 440.738 367.627 432.561C374.676 428.633 388.945 419.275 392 416.577C394.134 414.693 394.558 414.486 379.977 422.453C376.533 424.336 373.481 425.876 373.196 425.876C372.911 425.876 372.155 426.453 371.516 427.16C370.877 427.866 370.04 428.379 369.657 428.299C369.274 428.219 364.607 430.367 359.287 433.072C348.72 438.444 339.679 442.293 328.32 446.256C320.464 448.997 307.523 454.669 309.12 454.67C309.648 454.671 313.828 453.682 318.41 452.472ZM268.16 449.638C268.16 449.412 266.792 449.339 265.12 449.477C263.094 449.644 262.481 449.871 263.282 450.159C264.637 450.645 268.16 450.269 268.16 449.638ZM274.632 446.209C276.752 445.078 279.098 444.511 282.952 444.198C286.715 443.892 289.325 443.274 291.68 442.131C295.119 440.463 296.406 438.828 293.372 439.981C292.455 440.33 290.079 440.72 288.092 440.848C286.106 440.975 278.864 441.475 272 441.958L259.52 442.836L265.92 443.156L272.32 443.476L266.56 444.342C263.392 444.818 259.792 445.413 258.56 445.663L256.32 446.117L258.24 447.21C261.206 448.897 270.676 448.319 274.632 446.209ZM220.16 446.719C220.16 445.77 219.488 445.474 215.68 444.739C213.582 444.334 213.506 444.376 214.489 445.398C215.066 445.997 216.506 446.717 217.689 446.996C218.872 447.276 219.912 447.534 220 447.57C220.088 447.604 220.16 447.223 220.16 446.719ZM252.8 442.431C249.808 442.136 244.624 441.619 241.28 441.284L235.2 440.673L241.801 440.96C249.24 441.284 250.247 440.343 243.219 439.637C237.919 439.105 231.906 440.285 233.028 441.638C233.892 442.679 236.853 442.928 248.64 442.95C257.651 442.969 257.906 442.935 252.8 442.431ZM319.751 440.846C322.937 438.708 325.851 435.78 325.319 435.248C325.092 435.021 323.977 434.836 322.842 434.836C320.592 434.836 320 435.654 320 438.764V440.667L318.56 439.109C317.262 437.704 316.777 437.59 313.648 437.953L310.176 438.356L312.55 440.436C315.422 442.951 316.518 443.014 319.751 440.846ZM222.08 441.578C222.08 440.776 219.308 439.94 218.056 440.365C216.725 440.816 216.755 440.872 218.56 441.285C221.071 441.859 222.08 441.944 222.08 441.578ZM272.64 439.988C275.499 439.479 275.49 439.475 271.36 439.405C269.072 439.367 266.768 439.614 266.24 439.956C265.045 440.728 268.386 440.744 272.64 439.988ZM207.945 434.463C208.384 434.025 207.777 433.694 206.096 433.458C204.95 433.297 204.445 433.569 204.272 434.441C204.068 435.473 204.295 435.581 205.855 435.189C206.857 434.937 207.798 434.611 207.945 434.463ZM351.169 430.591C350.752 430.174 346.379 431.847 344.911 432.985C343.741 433.893 344.342 433.771 347.361 432.486C349.562 431.551 351.275 430.698 351.169 430.591ZM182.72 429.045C182.016 428.725 179.85 427.884 177.906 427.178C175.963 426.471 172.795 424.918 170.866 423.726C165.12 420.174 158.72 416.859 158.72 417.435C158.72 418.337 161.442 420.53 164.48 422.078C168.869 424.313 181.955 429.64 183.04 429.634C183.663 429.627 183.551 429.425 182.72 429.045ZM164.48 418.525C164.48 418.354 162.68 417.312 160.48 416.209C155.941 413.934 155.937 414.322 160.472 416.983C163.48 418.748 164.48 419.132 164.48 418.525ZM107.111 383.999C105.4 382.048 103.767 380.448 103.482 380.444C103.198 380.436 104.478 382.155 106.328 384.256C108.178 386.358 109.811 387.958 109.957 387.812C110.103 387.666 108.822 385.95 107.111 383.999ZM97.92 365.133C97.92 364.494 92.9565 358.036 92.4651 358.036C91.5487 358.036 92.4387 360.103 94.4857 362.731C96.6926 365.563 97.92 366.422 97.92 365.133ZM113.049 333.398C112.483 331.922 111.408 332.801 111.826 334.398C112.056 335.279 112.385 335.507 112.811 335.081C113.162 334.729 113.27 333.972 113.049 333.398ZM64.8674 312.116C64.1044 309.042 62.7269 306.196 62.0029 306.196C61.2761 306.196 61.3639 306.553 63.2222 311.153C64.45 314.193 65.5417 314.831 64.8674 312.116ZM57.9163 288.539C56.6531 284.372 55.4523 280.807 55.2478 280.619C54.8315 280.234 55.4039 285 56.3614 289.892C57.0171 293.241 59.5326 298.089 59.9648 296.836C60.1013 296.44 59.1796 292.707 57.9163 288.539ZM83.5343 285.929C83.1542 282.887 83.3148 281.803 84.53 279.209C85.5294 277.075 86.3632 276.116 87.2178 276.116C88.093 276.116 88.341 275.814 88.0623 275.087C87.8453 274.521 86.9263 271.137 86.0202 267.567C84.6141 262.026 84.4347 260.279 84.795 255.636C85.1442 251.137 84.9333 248.831 83.5761 242.309C82.0807 235.121 82.0197 234.259 82.8877 232.581C84.1703 230.1 84.0998 229.832 82.2856 230.287C80.8381 230.65 80.6812 230.437 80.007 227.189C79.1931 223.269 79.6127 220.19 82.1209 211.683C83.7433 206.179 83.6976 203.581 81.8714 197.487C81.0848 194.861 81.0478 194.836 78.0315 194.836H74.9858L74.3442 197.876C73.9912 199.548 72.9232 205.666 71.9708 211.472L70.239 222.029L71.3336 229.712C71.9356 233.938 72.9743 241.673 73.6418 246.902C75.0184 257.683 76.1828 264.178 78.1054 271.799C79.9853 279.251 83.1863 289.556 83.621 289.556C83.8225 289.556 83.7837 287.923 83.5343 285.929ZM79.3599 241.608C79.3599 240.358 80.161 239.02 80.707 239.357C81.6573 239.944 81.3504 242.196 80.32 242.196C79.792 242.196 79.3599 241.931 79.3599 241.608ZM38.6821 139.871C40.2524 136.744 41.3593 134.008 41.1419 133.791C40.03 132.679 38.8385 133.888 36.1049 138.903C33.6944 143.325 33.2779 144.521 33.9914 144.973C34.4802 145.283 35.0932 145.54 35.3536 145.546C35.614 145.553 37.1119 142.997 38.6821 139.871ZM247.04 6.0355C245.779 5.22068 244.296 5.22068 244.8 6.0355C245.018 6.38738 245.827 6.67114 246.598 6.66573C247.738 6.65817 247.82 6.53984 247.04 6.0355ZM194.407 465.743C195.204 465.59 196.356 465.596 196.967 465.754C197.579 465.915 196.928 466.04 195.52 466.032C194.112 466.025 193.611 465.896 194.407 465.743ZM185.6 464.912C184.64 464.603 185.664 464.536 188.16 464.746C190.448 464.938 192.44 465.198 192.587 465.325C193.103 465.771 187.18 465.422 185.6 464.912ZM99.9943 422.344C97.0934 420.402 94.72 418.657 94.72 418.467C94.72 418.031 95.2523 418.347 100.96 422.168C104.925 424.823 106.196 425.876 105.434 425.876C105.343 425.876 102.895 424.287 99.9943 422.344ZM6.11901 298.036C5.88808 297.068 5.54952 295.772 5.36652 295.156C5.16129 294.464 5.3778 294.036 5.92904 294.036C6.46581 294.036 7.08824 295.189 7.48339 296.916C7.99404 299.147 7.96184 299.796 7.34048 299.796C6.89945 299.796 6.3499 299.004 6.11901 298.036ZM1.91998 274.888C1.91998 274.565 1.74502 273.845 1.53151 273.288C1.27677 272.624 1.4975 272.276 2.17154 272.276C2.84192 272.276 3.20005 272.833 3.20005 273.876C3.20005 274.756 2.91204 275.476 2.56002 275.476C2.20814 275.476 1.91998 275.211 1.91998 274.888ZM0 243.422C0 240.081 0.210519 238.958 0.800012 239.153C1.30651 239.321 1.66937 240.984 1.78919 243.687C1.94452 247.192 1.8006 247.956 0.989289 247.956C0.19007 247.956 0 247.085 0 243.422ZM39.68 94.7122C39.68 93.7798 42.4627 89.9376 42.9292 90.226C43.5259 90.5948 40.9792 94.9741 40.16 94.9876C39.8958 94.9952 39.68 94.8683 39.68 94.7122ZM59.6999 73.1595C59.1258 72.5854 59.7112 71.7236 62.1909 69.4944C69.5997 62.8333 70.5961 62.868 64.4356 69.5729C61.3874 72.8904 60.274 73.7336 59.6999 73.1595ZM85.7599 51.4646C88.8896 48.6449 99.1211 41.3625 105.6 37.343C112.176 33.2633 123.275 27.9142 135.36 23.0005C145.125 19.0299 147.219 17.9225 151.924 14.2404C155.78 11.2224 158.194 11.0492 161.219 13.574L163.349 15.3525L157.675 18.0058C154.554 19.4651 146.699 22.8855 140.22 25.6067C128.793 30.4065 109.863 39.5921 92.16 48.9267C85.1964 52.5987 83.9545 53.0911 85.7599 51.4646ZM126.192 20.1007C126.318 19.7207 127.353 18.8205 128.491 18.0999C130.082 17.0925 130.56 16.9988 130.56 17.6943C130.56 18.1916 129.525 19.0919 128.261 19.695C126.996 20.2981 126.065 20.4806 126.192 20.1007ZM153.216 10.4117C152.575 9.37509 153.624 8.82995 158.51 7.66079C165.541 5.97822 166.149 6.81175 159.528 9.05574C155.822 10.3118 153.467 10.8177 153.216 10.4117Z"
     fill="rgb(255 65 82)"
     id="path845"
     style="fill:#8f4d4d;fill-opacity:1" />
  <path
     d="M243.859 322.976C238.624 319.449 236.85 313.431 239.437 307.979C242.58 301.356 251.404 299.466 256.85 304.248C261.532 308.358 262.456 314.265 259.236 319.503C256.266 324.335 248.484 326.093 243.859 322.976ZM274.758 316.913C269.208 315.125 266.022 310.387 266.566 304.73C267.604 293.92 281.074 290.504 287.65 299.383C291.064 303.993 289.287 312.361 284.231 315.485C281.492 317.178 277.465 317.785 274.758 316.913ZM302.212 309.316C297.274 307.461 294.042 301.885 294.836 296.591C295.214 294.071 295.975 292.697 298.256 290.415C302.223 286.448 306.293 285.733 311.158 288.146C315.63 290.365 317.664 293.519 317.664 298.234C317.664 304.683 312.64 309.873 306.498 309.768C304.72 309.738 302.791 309.534 302.212 309.316ZM195.68 305.656C184.906 301.777 175.859 290.501 171.129 275.055C169.371 269.314 169.194 267.733 169.195 257.847C169.195 248.357 169.395 246.419 170.748 242.745C175.183 230.702 183.818 224.429 195.8 224.546C202.998 224.616 207.519 226.487 211.958 231.232C213.726 233.122 215.305 234.668 215.467 234.668C215.629 234.668 217.208 233.122 218.976 231.232C224.275 225.566 231.471 223.342 239.683 224.832C247.52 226.253 253.06 229.981 257.373 236.737C259.698 240.379 259.843 241.446 258.087 242.003C256.133 242.623 252.395 246.561 250.808 249.671C248.605 253.991 249.203 260.98 252.131 265.135C254.51 268.51 254.468 268.758 251.289 270.094C245.342 272.592 241.847 277.998 241.822 284.741C241.807 288.718 242.824 291.525 245.751 295.591C246.855 297.124 246.807 297.194 243.78 298.492C240.836 299.754 236.187 303.663 236.187 304.877C236.187 305.779 230.3 307.014 225.998 307.014C223.581 307.014 220.758 306.458 218.72 305.582L215.391 304.15L212.268 305.566C208.185 307.419 200.689 307.459 195.68 305.656ZM254.643 295.768C249.298 294.564 246.028 290.476 246.023 284.995C246.021 280.327 247.71 277.115 251.266 275.031C260.148 269.826 271.117 277.617 268.515 287.282C266.819 293.578 260.925 297.184 254.643 295.768ZM279.8 287.234C276.235 284.787 274.662 282.24 274.283 278.301C274.003 275.383 274.264 274.228 275.776 271.644C280.519 263.55 291.865 263.931 295.926 272.32C299.687 280.089 294.991 287.981 286.242 288.593C282.863 288.829 281.798 288.604 279.8 287.234ZM310.197 280.964C306.87 279.999 303.11 275.435 302.546 271.677C301.943 267.652 303.911 262.947 307.17 260.627C310.649 258.15 316.535 257.896 319.755 260.084C323.601 262.698 325.391 265.89 325.391 270.138C325.391 274.777 323.371 277.985 319.09 280.147C315.782 281.819 313.781 282.002 310.197 280.964ZM259.434 266.218C254.82 263.405 252.668 258.766 253.751 253.966C255.832 244.739 267.307 241.516 273.394 248.449C277.317 252.917 277.619 258.547 274.192 263.359C271.159 267.619 264.006 269.005 259.434 266.218ZM288.14 259.076C283.789 256.88 281.695 253.126 282.049 248.16C282.498 241.866 287.087 237.478 293.219 237.478C297.376 237.478 300.134 238.796 302.521 241.925C305.945 246.415 305.748 251.956 302.013 256.21C297.978 260.806 293.429 261.745 288.14 259.076ZM308.869 254.311C308.143 253.135 309.497 247.609 311.112 245.158C315.627 238.307 317.015 227.821 314.474 219.762C312.991 215.06 313.664 212.517 316.587 211.784C319.891 210.954 321.599 211.943 323.169 215.593C326.207 222.656 326.272 233.71 323.323 242.1C321.786 246.474 317.463 253.528 316.055 253.959C313.919 254.614 309.199 254.844 308.869 254.311ZM297.146 230.318C292.985 229.211 288.38 224.675 287.123 220.444C285.846 216.145 285.728 209.992 286.9 208.82C288.072 207.647 292.824 207.768 297.254 209.084C302.374 210.604 307.311 215.542 308.831 220.662C310.149 225.099 310.26 229.149 309.095 230.313C308.094 231.314 300.904 231.314 297.146 230.318ZM213.137 225.186C211.004 223.391 210.993 223.347 211.985 220.537C215.769 209.81 223.487 201.124 234.067 195.685C238.397 193.459 241.908 194.364 243.316 198.068C244.441 201.026 242.875 203.372 238.065 205.936C232.559 208.87 227.449 213.637 224.817 218.293C223.685 220.296 221.75 222.578 220.518 223.363C219.285 224.148 217.605 225.287 216.783 225.894C215.391 226.922 215.144 226.874 213.137 225.186ZM201.297 212.16C197.255 211.361 194.633 209.887 192.08 206.979C189.452 203.986 188.434 200.617 188.429 194.893C188.421 189.43 189.222 188.658 194.196 189.318C204.695 190.711 210.562 196.669 212.038 207.438C212.418 210.209 212.271 210.732 210.827 211.743C209.077 212.969 206.056 213.101 201.297 212.16Z"
     fill="white"
     id="path847"
     style="fill:#ffffff;fill-opacity:1" />
</svg>
