<svg  width="24" height="24" viewBox="0 0 141 141" fill="none" xmlns="http://www.w3.org/2000/svg">
<g
     inkscape:label="Layer 1"
     inkscape:groupmode="layer"
     id="layer1">
    <g
       id="g151"
       transform="translate(498.29665,364.54877)">
      <path
         style="fill:#ff2ad4;stroke-width:0.169333"
         d="m -392.42033,-158.37275 c -7.10945,-0.4544 -13.46021,-2.13299 -22.10966,-5.84383 -4.99366,-2.1424 -8.26012,-3.81621 -11.03429,-5.65422 -3.87993,-2.57063 -7.39845,-5.52796 -7.84253,-6.59166 -0.14026,-0.33597 -1.11042,-1.48717 -2.1559,-2.5582 -1.04549,-1.07103 -2.18276,-2.26946 -2.52727,-2.66317 -0.34452,-0.39372 -0.72631,-0.67751 -0.84843,-0.63065 -0.28467,0.10923 -1.21468,-0.85168 -1.06255,-1.09786 0.0632,-0.10221 0.18398,-0.14314 0.26844,-0.0909 0.0845,0.0522 -0.54159,-0.82286 -1.39124,-1.94457 -0.85183,-1.1246 -1.6673,-2.03949 -1.81787,-2.03949 -0.3789,0 -0.77457,-0.63393 -0.44211,-0.70834 0.17113,-0.0383 -0.0123,-0.44731 -0.64064,-1.42822 -0.48425,-0.75602 -1.18525,-1.95592 -1.55778,-2.66646 -0.37253,-0.71054 -0.75982,-1.26133 -0.86064,-1.22396 -0.2278,0.0844 -1.30264,-2.05222 -1.09647,-2.17964 0.0823,-0.0508 -0.23702,-0.98742 -0.70955,-2.08124 -0.52816,-1.22266 -0.88551,-2.31497 -0.92762,-2.83547 l -0.0685,-0.84667 0.87463,1.60867 c 0.48105,0.88477 1.24515,2.3942 1.698,3.35431 1.39426,2.95596 2.2849,4.12015 4.52228,5.91117 0.37432,0.29965 1.09619,1.13785 1.60414,1.86267 2.8174,4.02029 7.86755,9.34774 11.98171,12.63959 3.50109,2.80134 10.0343,7.06791 13.462,8.79147 2.35895,1.18616 8.47394,2.93671 12.81161,3.66759 4.98847,0.84054 12.01033,1.30341 16.65239,1.0977 1.76953,-0.0784 3.75073,-0.10844 4.40267,-0.0667 2.75071,0.17602 6.08849,0.0717 7.35195,-0.2297 2.65796,-0.63416 4.85313,-1.64797 7.71871,-3.56481 0.8382,-0.56069 2.0955,-1.34643 2.794,-1.7461 0.6985,-0.39966 1.20754,-0.72721 1.1312,-0.72791 -0.0764,0 -1.06695,0.33432 -2.20134,0.74444 -7.9427,2.87168 -15.98245,3.89834 -25.43052,3.24748 -4.6125,-0.31774 -6.16018,-0.48782 -8.80534,-0.96766 -4.58957,-0.83258 -8.53902,-2.12525 -13.63133,-4.46164 -6.21256,-2.85036 -9.21823,-4.4382 -10.36868,-5.47757 -0.63491,-0.57359 -1.3059,-1.63626 -1.32382,-2.09656 -0.005,-0.12013 -0.47854,-0.44145 -1.05302,-0.71406 l -1.04452,-0.49566 0.50269,-0.1609 c 0.27648,-0.0885 0.67575,-0.3184 0.88727,-0.5109 l 0.38458,-0.34999 -0.80155,-0.81378 c -0.79374,-0.80584 -1.11119,-0.94241 -1.54761,-0.66575 -0.21997,0.13944 -0.0882,0.83473 0.40532,2.13797 0.12653,0.33414 0.12279,0.33404 -0.27988,-0.008 -0.89919,-0.76388 -0.98215,-0.80398 -0.88359,-0.4271 0.49874,1.90719 -8.19601,-6.34277 -8.76102,-8.31282 -0.0888,-0.30973 -0.1615,-0.77858 -0.1615,-1.04191 0,-0.64846 -1.28348,-2.44577 -2.80369,-3.92613 -0.66949,-0.65193 -1.59613,-1.76757 -2.0592,-2.47919 -2.75448,-4.2329 -5.19755,-12.73227 -5.63923,-19.6188 -0.13824,-2.15529 -0.30272,-3.44966 -0.5272,-4.14867 -0.56908,-1.7721 -0.72746,-4.00426 -0.5102,-7.19066 0.49086,-7.19919 2.24728,-13.32564 6.04582,-21.08801 1.67657,-3.42611 3.04048,-5.71062 5.66303,-9.48546 1.07103,-1.54161 1.97061,-2.89555 1.99906,-3.00875 0.0977,-0.38871 -2.66781,2.62695 -3.87273,4.22304 -1.68009,2.22549 -3.02776,4.41629 -4.38766,7.13264 -1.87587,3.74699 -2.82666,6.35284 -4.833,13.24586 -0.52861,1.8161 -1.02286,3.41325 -1.09835,3.54921 -0.21785,0.39243 -0.42653,-1.2225 -0.39297,-3.04121 0.0308,-1.66697 0.28557,-2.81823 1.64724,-7.44228 0.34146,-1.15957 0.59583,-2.22637 0.56527,-2.37067 -0.14203,-0.67076 -2.33815,5.65602 -3.26209,9.39771 -1.50196,6.08256 -2.01433,10.74579 -2.02212,18.40385 -0.003,3.23469 -0.0618,5.67309 -0.13004,5.41867 -0.63327,-2.36139 -0.78953,-14.13112 -0.24558,-18.49661 0.49358,-3.96118 1.6517,-9.68021 2.31194,-11.41676 0.26792,-0.7047 0.0208,-0.50055 -0.34266,0.28309 l -0.33381,0.71967 0.10038,-0.67734 c 0.14572,-0.98316 2.0992,-5.83509 3.61339,-8.97466 8.26209,-17.13098 20.71324,-27.70456 37.38179,-31.74484 2.64577,-0.6413 8.28598,-2.31038 8.55779,-2.53246 0.0655,-0.0536 -0.79171,-0.0738 -1.905,-0.0451 -1.20666,0.0312 -2.02418,-0.0129 -2.02418,-0.10908 0,-0.36172 0.99511,-1.19138 1.61895,-1.34981 1.81098,-0.45988 2.08879,-0.47605 4.23927,-0.2467 2.50524,0.26719 7.13219,0.19058 8.45044,-0.13992 l 0.84667,-0.21226 -0.59267,-0.14079 c -1.05377,-0.2503 -9.86769,-0.38679 -10.29261,-0.15937 -0.24227,0.12966 -0.37539,0.13873 -0.37539,0.0256 0,-0.11115 -0.8211,-0.18164 -2.24366,-0.19263 -2.56339,-0.0198 -2.40309,-0.10267 1.31233,-0.67852 3.19475,-0.49515 7.77577,-0.52424 12.25671,-0.0778 2.7423,0.2732 3.4738,0.29408 4.44814,0.127 1.50635,-0.25832 2.01633,-0.24579 2.41985,0.0594 0.18078,0.13674 0.44748,0.25001 0.59266,0.25172 0.14519,0.002 0.91167,0.27584 1.70331,0.60919 1.06761,0.44958 2.0953,0.71137 3.97933,1.01373 8.38395,1.34546 16.30055,4.45057 23.27512,9.12915 3.23845,2.17236 5.84327,4.30649 9.37464,7.68059 1.04183,0.99544 2.16094,1.99085 2.4869,2.21204 0.95018,0.64473 2.01172,1.72936 1.92183,1.9636 -0.0455,0.11867 0.37972,0.72614 0.94502,1.34993 0.5653,0.62379 1.02782,1.20267 1.02782,1.28641 0,0.0838 0.14591,0.15226 0.32424,0.15226 0.19334,0 0.57517,0.34183 0.94576,0.84667 0.34183,0.46566 0.69937,0.84666 0.79454,0.84666 0.0952,0 0.12752,0.11857 0.0719,0.2635 -0.0606,0.15789 0.15928,0.616 0.54857,1.143 1.11691,1.51201 2.21558,3.30984 2.05692,3.36584 -0.24315,0.0858 0.72027,1.44599 1.17589,1.66013 0.32593,0.15318 0.36379,0.22614 0.17716,0.34149 -0.18781,0.11606 -0.19702,0.22852 -0.0442,0.5387 0.10626,0.2156 0.23876,0.55572 0.29446,0.75582 0.18662,0.67046 1.0903,1.75286 1.46344,1.75286 0.28857,0 0.33715,0.075 0.25658,0.39595 -0.0574,0.22851 0.004,0.53284 0.1456,0.71967 0.13473,0.17803 0.25148,0.24751 0.25945,0.15438 0.008,-0.0931 0.16579,0.28786 0.3507,0.84666 0.33042,0.99853 0.38029,1.18383 0.59247,2.20134 0.0583,0.2794 0.26408,0.79375 0.45737,1.143 0.28159,0.50878 0.44982,0.635 0.84638,0.635 0.37037,0 0.4704,-0.0639 0.39746,-0.254 -0.16221,-0.42271 -0.009,-0.28931 0.48352,0.42182 0.34067,0.49156 0.42,0.73408 0.29102,0.88949 -0.12541,0.15113 -0.10882,0.33749 0.0567,0.63651 0.12869,0.23256 0.23671,0.59931 0.24001,0.81497 0.003,0.21568 0.0875,0.54441 0.18708,0.7305 0.12995,0.24279 0.12763,0.40278 -0.008,0.56646 -0.12973,0.15631 -0.13371,0.26245 -0.0127,0.33727 0.0971,0.06 0.26086,0.26652 0.36378,0.45885 0.13926,0.26021 0.1376,0.31904 -0.006,0.22999 -0.10651,-0.0658 -0.31286,-0.0207 -0.45857,0.10017 -0.21658,0.17975 -0.24356,0.4367 -0.14783,1.40823 0.13797,1.4002 0.19966,1.53763 0.55904,1.24563 0.23296,-0.18929 0.25432,-0.17646 0.15353,0.0922 -0.27254,0.72636 -0.30991,1.15079 -0.14337,1.62853 0.10903,0.31278 0.11577,0.54498 0.0176,0.60566 -0.2783,0.17199 -0.17166,0.74511 0.17944,0.96438 0.39559,0.24706 0.46544,0.72292 0.0847,0.5768 -0.1397,-0.0536 -0.25371,-0.0808 -0.25336,-0.0605 0,0.0204 0.22743,1.18002 0.5046,2.57702 0.57263,2.88627 0.68256,5.60512 0.25676,6.35001 -0.1808,0.31628 -0.24352,1.09777 -0.24801,3.09033 -0.005,2.25511 -0.0452,2.667 -0.25999,2.667 -0.19133,0 -0.254,0.2054 -0.254,0.83256 0,0.4579 -0.0787,0.85878 -0.17484,0.89083 -0.19187,0.064 -0.57687,1.45921 -0.75098,2.72161 -0.0915,0.66346 -0.0646,0.80433 0.15344,0.80433 0.17876,0 0.26438,0.15884 0.26438,0.49046 0,0.34544 0.16965,0.63942 0.57377,0.99424 0.3663,0.32162 0.52625,0.58068 0.44235,0.71645 -0.0723,0.11696 -0.0988,0.48871 -0.0588,0.82609 0.0846,0.71515 -0.18422,1.26997 -0.43036,0.88807 -0.29735,-0.46138 -0.52694,0.0112 -0.52694,1.0847 0,0.83566 -0.052,1.06541 -0.22609,0.99861 -0.12434,-0.0477 -0.38384,0.0499 -0.57665,0.21698 -0.31754,0.27512 -1.4653,2.94739 -2.26799,5.28047 -0.17278,0.50219 -0.38361,0.99756 -0.46852,1.10083 -0.0849,0.10326 -0.83459,1.40696 -1.66595,2.89709 -0.83136,1.49014 -2.00702,3.47134 -2.61257,4.40267 -0.60556,0.93133 -1.23871,1.96003 -1.40701,2.286 -0.1683,0.32597 -0.35232,0.67708 -0.40894,0.78027 -0.31557,0.57507 -3.1378,4.62668 -4.22755,6.06909 -6.101,8.07538 -13.83409,14.56177 -22.71681,19.05449 -7.89962,3.99549 -15.50894,6.08552 -24.04617,6.60471 -3.0534,0.18569 -3.5134,0.18519 -6.52524,-0.007 z m -4.66294,-1.75414 c -0.11406,-0.11406 -4.40931,-0.64047 -4.49847,-0.5513 -0.0699,0.0699 0.33907,0.14864 2.65091,0.51048 0.6121,0.0958 1.9317,0.12496 1.84756,0.0408 z m 27.70369,-8.3008 c 4.22227,-1.11491 9.14068,-3.10461 13.02204,-5.268 1.86498,-1.03948 5.64035,-3.51542 6.44871,-4.22915 0.56457,-0.49846 0.67688,-0.55336 -3.18103,1.55472 -0.91137,0.49801 -1.71871,0.90546 -1.79409,0.90546 -0.0754,0 -0.27545,0.15292 -0.44459,0.33982 -0.16915,0.18691 -0.39051,0.32256 -0.49192,0.30144 -0.1014,-0.0211 -1.33609,0.54712 -2.74375,1.26272 -2.7958,1.4213 -5.18781,2.43972 -8.19328,3.48837 -2.0785,0.72522 -5.50261,2.22582 -5.08,2.22629 0.1397,1.6e-4 1.24576,-0.2616 2.45791,-0.58167 z m -13.29525,-0.74974 c 0,-0.06 -0.36195,-0.0792 -0.80433,-0.0427 -0.53606,0.0442 -0.69826,0.10432 -0.48631,0.18037 0.35859,0.12868 1.29064,0.0293 1.29064,-0.13763 z m 1.71245,-0.90743 c 0.56082,-0.29909 1.18168,-0.44914 2.20134,-0.53203 0.99556,-0.0809 1.68603,-0.24441 2.30921,-0.54674 0.90986,-0.4414 1.2504,-0.87405 0.44778,-0.56889 -0.24268,0.0922 -0.87133,0.19541 -1.397,0.22921 -0.52568,0.0338 -2.44168,0.16596 -4.25778,0.29371 l -3.302,0.23227 1.69334,0.0847 1.69333,0.0847 -1.524,0.2292 c -0.8382,0.12606 -1.7907,0.28332 -2.11667,0.34948 l -0.59266,0.12026 0.508,0.28901 c 0.78469,0.44643 3.29031,0.29344 4.33711,-0.26482 z m -14.41245,0.13495 c 0,-0.25089 -0.17775,-0.32944 -1.18533,-0.52379 -0.55519,-0.10708 -0.57511,-0.0961 -0.31506,0.17425 0.15268,0.15871 0.53368,0.34906 0.84666,0.42301 0.31299,0.0739 0.58812,0.14224 0.6114,0.15177 0.0233,0.009 0.0423,-0.0918 0.0423,-0.22524 z m 8.636,-1.13435 c -0.79163,-0.0782 -2.16323,-0.21485 -3.048,-0.3037 l -1.60866,-0.16155 1.74663,0.076 c 1.96802,0.0856 2.23467,-0.16322 0.37501,-0.34998 -1.40214,-0.14081 -2.9932,0.17145 -2.69631,0.52919 0.22864,0.27549 1.01211,0.34136 4.13067,0.34733 2.38415,0.005 2.45168,-0.004 1.10066,-0.13729 z m 17.71404,-0.41949 c 0.84314,-0.56552 1.61396,-1.34046 1.47328,-1.48114 -0.06,-0.06 -0.35494,-0.1091 -0.65542,-0.1091 -0.5952,0 -0.7519,0.21659 -0.7519,1.0393 v 0.50358 l -0.381,-0.41228 c -0.34333,-0.37153 -0.47182,-0.40176 -1.29968,-0.30578 l -0.91869,0.10651 0.62825,0.55033 c 0.75991,0.66569 1.04993,0.68221 1.90516,0.10858 z m -25.84204,0.19372 c 0,-0.21231 -0.73334,-0.4334 -1.06473,-0.32099 -0.3521,0.11943 -0.34409,0.13406 0.1334,0.24335 0.66431,0.15206 0.93133,0.17431 0.93133,0.0776 z m 13.37734,-0.42066 c 0.75655,-0.13461 0.75413,-0.13572 -0.33867,-0.15418 -0.60537,-0.0102 -1.21497,0.0553 -1.35467,0.14554 -0.31628,0.2044 0.56782,0.20891 1.69334,0.009 z m -17.11713,-1.46174 c 0.11614,-0.11614 -0.0446,-0.20352 -0.48937,-0.266 -0.30318,-0.0426 -0.43666,0.0293 -0.48242,0.26001 -0.0542,0.2732 0.006,0.30155 0.41881,0.1979 0.26514,-0.0665 0.51398,-0.15291 0.55298,-0.19191 z m 37.89453,-1.0246 c -0.11037,-0.11037 -1.26716,0.3322 -1.65558,0.63341 -0.3098,0.24025 -0.15079,0.20789 0.64819,-0.1319 0.58228,-0.24763 1.0356,-0.4733 1.00739,-0.50151 z m -44.56874,-0.40892 c -0.18626,-0.0849 -0.75938,-0.30731 -1.27359,-0.49422 -0.51422,-0.18691 -1.35242,-0.59788 -1.86267,-0.91327 -1.52042,-0.93974 -3.21374,-1.81677 -3.21374,-1.66447 0,0.2386 0.72011,0.81903 1.524,1.22839 1.1612,0.5913 4.62354,2.00098 4.91067,1.99937 0.16496,-0.002 0.13528,-0.0555 -0.0847,-0.1558 z m -4.826,-2.78361 c 0,-0.0452 -0.47625,-0.32095 -1.05833,-0.61273 -1.20103,-0.60203 -1.20192,-0.49936 -0.002,0.20488 0.79567,0.46688 1.06011,0.56864 1.06011,0.40785 z m -15.17881,-9.13494 c -0.45275,-0.51619 -0.88483,-0.93951 -0.96017,-0.94069 -0.0753,-0.002 0.26347,0.45279 0.75291,1.00883 0.48945,0.55604 0.92152,0.97936 0.96017,0.94072 0.0387,-0.0387 -0.30016,-0.49264 -0.75291,-1.00886 z m -2.43185,-4.99162 c 0,-0.16918 -1.31325,-1.87787 -1.44327,-1.87787 -0.24245,0 -0.007,0.54699 0.53459,1.24221 0.58392,0.74948 0.90868,0.97666 0.90868,0.63566 z m 4.00301,-8.39656 c -0.14984,-0.39049 -0.43429,-0.15792 -0.32377,0.26471 0.0609,0.23287 0.14795,0.29319 0.26059,0.18055 0.093,-0.093 0.12146,-0.29339 0.0632,-0.44526 z m -12.74817,-5.63097 c -0.20188,-0.81309 -0.56634,-1.56633 -0.7579,-1.56633 -0.19231,0 -0.16907,0.0945 0.32261,1.3117 0.32485,0.80418 0.61368,0.97314 0.43529,0.25463 z m -1.83915,-6.23795 c -0.33423,-1.10265 -0.65195,-2.04567 -0.70605,-2.09561 -0.11014,-0.10165 0.0413,1.15933 0.29465,2.45351 0.17347,0.8861 0.83904,2.16875 0.9534,1.83732 0.0361,-0.10474 -0.20777,-1.09258 -0.542,-2.19522 z m 6.7781,-0.69063 c -0.10055,-0.80486 -0.0581,-1.09156 0.26344,-1.778 0.26441,-0.56452 0.48503,-0.81842 0.71116,-0.81842 0.23156,0 0.29717,-0.0799 0.22341,-0.27214 -0.0574,-0.14967 -0.30056,-1.04502 -0.54028,-1.98966 -0.37205,-1.46611 -0.41951,-1.92824 -0.32418,-3.15687 0.0924,-1.19024 0.0366,-1.80045 -0.32247,-3.52599 -0.39567,-1.90171 -0.41182,-2.12987 -0.18218,-2.57395 0.33936,-0.65625 0.3207,-0.72737 -0.15931,-0.60689 -0.38299,0.0961 -0.42447,0.0397 -0.60286,-0.81959 -0.21535,-1.03732 -0.10431,-1.85186 0.5593,-4.10283 0.42926,-1.45604 0.41719,-2.14343 -0.066,-3.75601 -0.20811,-0.69462 -0.21794,-0.70141 -1.01598,-0.70141 h -0.80583 l -0.16979,0.80433 c -0.0934,0.44238 -0.37597,2.06121 -0.62796,3.5974 l -0.45818,2.79307 0.2896,2.03293 c 0.15928,1.11811 0.43411,3.16479 0.61074,4.54817 0.3642,2.85245 0.6723,4.57097 1.18097,6.5873 0.4974,1.97162 1.34431,4.69814 1.45934,4.69814 0.0533,0 0.043,-0.43182 -0.023,-0.95958 z m -1.10446,-11.72658 c 0,-0.33069 0.21195,-0.68483 0.35641,-0.59555 0.25143,0.15539 0.17021,0.75104 -0.10241,0.75104 -0.1397,0 -0.254,-0.07 -0.254,-0.15549 z m -10.76267,-26.91794 c 0.41547,-0.82724 0.70833,-1.55114 0.65081,-1.60866 -0.2942,-0.2942 -0.60946,0.0258 -1.33271,1.3526 -0.6378,1.17004 -0.74799,1.48652 -0.55921,1.60607 0.12932,0.0819 0.2915,0.15007 0.36041,0.15149 0.0689,0.002 0.46523,-0.67425 0.8807,-1.5015 z m 55.128,-35.41058 c -0.3336,-0.21559 -0.72591,-0.21559 -0.59266,0 0.0576,0.0931 0.2716,0.16817 0.47566,0.16674 0.30162,-0.002 0.3235,-0.0333 0.117,-0.16674 z m -13.92569,121.63092 c 0.21064,-0.0405 0.51544,-0.039 0.67733,0.003 0.1619,0.0424 -0.0104,0.0755 -0.38297,0.0736 -0.37253,-0.002 -0.50499,-0.0366 -0.29436,-0.0771 z m -2.33031,-0.21974 c -0.25402,-0.0819 0.0169,-0.0995 0.67734,-0.0441 0.60536,0.0508 1.13241,0.11975 1.17122,0.1533 0.13666,0.11807 -1.43051,0.0255 -1.84856,-0.10922 z m -22.64984,-11.26279 c -0.76752,-0.51386 -1.39549,-0.97554 -1.39549,-1.02599 0,-0.11515 0.14083,-0.0316 1.651,0.97939 1.04901,0.70228 1.38527,0.9809 1.18383,0.9809 -0.0241,0 -0.67182,-0.42044 -1.43934,-0.9343 z m -24.83784,-32.89002 c -0.0611,-0.25612 -0.15068,-0.59902 -0.1991,-0.762 -0.0543,-0.18295 0.003,-0.29634 0.14885,-0.29634 0.14202,0 0.3067,0.30512 0.41125,0.762 0.13511,0.59043 0.1266,0.762 -0.0378,0.762 -0.11669,0 -0.26213,-0.20955 -0.32322,-0.46566 z m -1.11098,-6.12449 c 0,-0.0855 -0.0463,-0.27601 -0.10279,-0.42333 -0.0674,-0.17577 -0.009,-0.26785 0.16934,-0.26785 0.17737,0 0.27212,0.1474 0.27212,0.42333 0,0.23284 -0.0762,0.42334 -0.16934,0.42334 -0.0931,0 -0.16933,-0.07 -0.16933,-0.15549 z m -0.508,-8.32529 c 0,-0.88398 0.0557,-1.18106 0.21167,-1.12951 0.13401,0.0443 0.23003,0.48431 0.26173,1.19945 0.0411,0.92756 0.003,1.1295 -0.21166,1.1295 -0.21146,0 -0.26174,-0.23039 -0.26174,-1.19944 z m 10.49866,-39.34622 c 0,-0.2467 0.73627,-1.26326 0.85969,-1.18697 0.1579,0.0976 -0.51596,1.25628 -0.73269,1.25986 -0.0699,0.002 -0.127,-0.0316 -0.127,-0.0729 z m 5.29692,-5.7025 c -0.1519,-0.15189 0.003,-0.3799 0.6591,-0.96972 1.96023,-1.76242 2.22388,-1.75321 0.5939,0.0208 -0.8065,0.87774 -1.1011,1.10085 -1.253,0.94896 z m 6.89508,-5.74011 c 0.82806,-0.74605 3.53512,-2.67284 5.24934,-3.73632 1.73991,-1.07942 4.67653,-2.49471 7.874,-3.79481 2.58369,-1.05055 3.13766,-1.34353 4.38245,-2.31777 1.02023,-0.79849 1.65915,-0.8443 2.45932,-0.17628 l 0.56365,0.47055 -1.50138,0.70202 c -0.82576,0.38609 -2.90387,1.29108 -4.61803,2.01107 -3.02348,1.26993 -8.03222,3.70027 -12.71601,6.17006 -1.84246,0.97155 -2.17101,1.10184 -1.69334,0.67148 z m 10.69754,-8.29835 c 0.0335,-0.10052 0.30727,-0.33873 0.60836,-0.52937 0.42098,-0.26655 0.54744,-0.29134 0.54744,-0.10734 0,0.13159 -0.27376,0.36981 -0.60836,0.52937 -0.3346,0.15956 -0.58095,0.20787 -0.54744,0.10734 z m 7.15015,-2.56354 c -0.16951,-0.27427 0.10809,-0.41852 1.40067,-0.72786 1.86024,-0.44518 2.02124,-0.22462 0.26944,0.3691 -0.98053,0.33233 -1.60372,0.46619 -1.67011,0.35876 z"
         id="path84"
         sodipodi:nodetypes="cssssssssssssssssscsssssssssssscssssscscsscssssssssssssssssssssssscsssscssssssssscsssssssscssssssssssssssssssssssssssscsscscsscsssssssscssssssssssscsssssssssssssccssssssssssssssssssssssssssscccsscssssssscsssscssscssssscsscssssssscssccsssssssssssssscsscssccscsssssssssssssssssssssssssssssssssscsscsssssssssssssscsssssccsccsssssssssssssssssssssssssssssscsssssssssssscsssssssssssss" />
      <path
         style="fill:#ffffff;stroke-width:0.18584"
         d="m -389.10455,-202.69007 c -1.3849,-0.9333 -1.85433,-2.52561 -1.16983,-3.9681 0.83148,-1.75221 3.16609,-2.25245 4.60717,-0.98716 1.23873,1.0876 1.48319,2.65046 0.63136,4.03626 -0.78589,1.27854 -2.845,1.74365 -4.0687,0.919 z m 8.17544,-1.60425 c -1.4684,-0.47311 -2.31134,-1.72665 -2.16753,-3.22332 0.27484,-2.86028 3.83875,-3.76419 5.57853,-1.41488 0.90321,1.21966 0.43315,3.43376 -0.90449,4.26047 -0.72467,0.44786 -1.79037,0.60848 -2.50651,0.37773 z m 7.26383,-2.00992 c -1.30655,-0.49095 -2.16163,-1.96623 -1.95157,-3.36706 0.1,-0.66671 0.30133,-1.03023 0.905,-1.6339 1.0496,-1.04959 2.12633,-1.23895 3.41358,-0.60029 1.1832,0.58703 1.72147,1.42156 1.72147,2.66898 0,1.70633 -1.32948,3.07956 -2.95446,3.05169 -0.47039,-0.008 -0.9807,-0.0618 -1.13402,-0.11942 z m -28.18656,-0.96864 c -2.85066,-1.02625 -5.24426,-4.00969 -6.49568,-8.09633 -0.46511,-1.5189 -0.51214,-1.93723 -0.51189,-4.55309 2.4e-4,-2.51081 0.0529,-3.02363 0.41089,-3.99556 1.17343,-3.18649 3.45821,-4.8463 6.62849,-4.81537 1.90449,0.0186 3.10073,0.51357 4.27503,1.769 0.46776,0.50007 0.88557,0.9092 0.92849,0.9092 0.043,0 0.46073,-0.40913 0.92848,-0.9092 1.40203,-1.49888 3.30594,-2.08732 5.47874,-1.69332 2.07341,0.37598 3.53916,1.36247 4.68032,3.14997 0.61526,0.96373 0.65354,1.2459 0.18904,1.39331 -0.51703,0.16412 -1.50606,1.20606 -1.92583,2.02887 -0.58304,1.14284 -0.42483,2.9921 0.35001,4.09138 0.62941,0.89295 0.61823,0.95879 -0.22292,1.31215 -1.57352,0.66102 -2.49799,2.09136 -2.50475,3.87536 -0.004,1.05217 0.26501,1.79502 1.03956,2.87069 0.29207,0.4056 0.2794,0.42427 -0.52142,0.76753 -0.77894,0.33389 -2.00895,1.36831 -2.00895,1.68949 0,0.23869 -1.55768,0.5653 -2.69606,0.5653 -0.6395,0 -1.3864,-0.14698 -1.92553,-0.37891 l -0.88077,-0.3789 -0.82623,0.37482 c -1.08033,0.49008 -3.06362,0.50075 -4.38902,0.0235 z m 15.60056,-2.61602 c -1.41405,-0.31861 -2.27938,-1.4002 -2.28049,-2.85048 -7e-4,-1.23492 0.44623,-2.08477 1.38715,-2.63618 2.34992,-1.37715 5.25224,0.68414 4.56368,3.24124 -0.4486,1.66596 -2.00801,2.61997 -3.67034,2.24542 z m 6.65621,-2.25814 c -0.94333,-0.64728 -1.35949,-1.32108 -1.45965,-2.36329 -0.0742,-0.77219 -0.005,-1.07776 0.39501,-1.76147 1.25494,-2.14138 4.25696,-2.04061 5.33142,0.17895 0.99509,2.05559 -0.24749,4.14347 -2.56235,4.30545 -0.89412,0.0625 -1.17571,0.003 -1.70443,-0.35964 z m 8.04246,-1.65892 c -0.88025,-0.25515 -1.87504,-1.46269 -2.02414,-2.45704 -0.1597,-1.06489 0.36118,-2.30985 1.22323,-2.92369 0.92051,-0.65545 2.47782,-0.72264 3.32981,-0.14366 1.01777,0.69164 1.49115,1.53615 1.49115,2.66025 0,1.22722 -0.53428,2.076 -1.66697,2.64821 -0.87529,0.44218 -1.40484,0.49078 -2.35308,0.21593 z m -13.43093,-3.90155 c -1.22067,-0.74417 -1.79005,-1.97163 -1.50366,-3.24151 0.55064,-2.44141 3.58661,-3.29411 5.19725,-1.45969 1.03798,1.18219 1.11773,2.67177 0.21118,3.94489 -0.80258,1.12713 -2.69521,1.49371 -3.90477,0.75631 z m 7.59515,-1.88957 c -1.15124,-0.58107 -1.7054,-1.57419 -1.61164,-2.88823 0.11883,-1.66521 1.33303,-2.82634 2.95554,-2.82634 1.09977,0 1.82956,0.34897 2.46098,1.17681 0.9061,1.18795 0.85394,2.65384 -0.13449,3.77959 -1.0675,1.21583 -2.2711,1.46445 -3.67039,0.75817 z m 5.48462,-1.26083 c -0.19227,-0.31111 0.16599,-1.77317 0.59342,-2.42171 1.19452,-1.81248 1.56175,-4.58699 0.88932,-6.71916 -0.39234,-1.24404 -0.2141,-1.91698 0.55915,-2.11105 0.87418,-0.21941 1.32603,0.0421 1.74155,1.008 0.80391,1.86874 0.82086,4.79338 0.0407,7.01325 -0.40677,1.15735 -1.55049,3.02351 -1.92299,3.13766 -0.56505,0.17317 -1.81378,0.23425 -1.90108,0.093 z m -3.10175,-6.34814 c -1.10107,-0.29276 -2.31953,-1.49303 -2.65192,-2.61229 -0.33783,-1.13761 -0.36914,-2.7656 -0.0592,-3.07559 0.3103,-0.31029 1.56758,-0.27829 2.73952,0.0698 1.35468,0.40229 2.66099,1.7086 3.06328,3.06328 0.34863,1.17397 0.37789,2.24552 0.0698,2.55368 -0.26482,0.26481 -2.16733,0.26553 -3.16148,0.002 z m -22.22755,-1.35783 c -0.56427,-0.4748 -0.56717,-0.4865 -0.30482,-1.23007 1.00133,-2.83808 3.04331,-5.13611 5.84277,-6.57538 1.1454,-0.58887 2.07439,-0.34943 2.44704,0.63071 0.29755,0.7826 -0.11672,1.40323 -1.3894,2.08156 -1.45681,0.77647 -2.8088,2.03757 -3.50507,3.26943 -0.29963,0.53011 -0.81158,1.13377 -1.13767,1.34145 -0.32612,0.20769 -0.77073,0.50902 -0.98804,0.66964 -0.36829,0.27221 -0.43379,0.2595 -0.96481,-0.18734 z m -3.13249,-3.44626 c -1.06949,-0.21148 -1.76318,-0.60143 -2.43886,-1.37098 -0.69521,-0.79179 -0.96451,-1.68332 -0.96589,-3.19755 -0.002,-1.44562 0.20986,-1.64981 1.52578,-1.47524 2.77788,0.3685 4.33028,1.94506 4.72082,4.79427 0.10049,0.73327 0.0616,0.87151 -0.32038,1.13906 -0.4631,0.32438 -1.26243,0.35939 -2.52147,0.11044 z"
         id="path100" />
    </g>
  </g>

</svg>