<svg width="100" height="100" viewBox="0 0 191 192" fill="none" xmlns="http://www.w3.org/2000/svg">
<path d="M74.4875 98.4249C73.0904 94.8586 71.9713 91.9167 72.0006 91.8874C72.03 91.8581 83.4489 91.8342 97.3761 91.8342C117.565 91.8342 122.699 91.8598 122.701 91.9609C122.702 92.0306 121.576 94.9725 120.197 98.4985L117.691 104.909H97.3592H77.0277L74.4875 98.4249ZM75.4757 89.0722C76.7073 85.941 79.2842 84.131 82.5105 84.131C85.6834 84.131 88.3665 85.9796 89.3523 88.8448C89.4637 89.1685 89.5548 89.4718 89.5548 89.5188C89.5548 89.5658 86.3399 89.6044 82.4106 89.6044H75.2664L75.4757 89.0722ZM91.9873 89.3912C91.9873 89.0284 91.3853 87.3563 91.0173 86.6972C89.9318 84.7529 88.0678 83.2109 85.8299 82.4059C85.4815 82.2806 85.1964 82.1396 85.1964 82.0926C85.1964 81.9471 86.2198 81.1896 86.8382 80.8774C89.3243 79.6225 93.2989 80.308 96.0224 82.4615C96.4842 82.8267 96.9926 83.3313 97.1521 83.5829C97.815 84.6282 99.1562 87.9743 99.4336 89.2749L99.5037 89.6043H95.7455C91.9937 89.6043 91.9873 89.6039 91.9873 89.3912ZM101.819 89.4169C101.819 89.0728 101.028 86.5272 100.562 85.3687C99.7576 83.3727 99.1156 82.225 98.4293 81.5568C97.1757 80.3362 96.326 79.7346 95.0425 79.159C94.3658 78.8554 93.812 78.5781 93.8119 78.5427C93.8115 78.3602 95.1767 77.2392 95.7914 76.9173C96.6056 76.491 98.1643 75.933 99.6333 75.5419C101.095 75.1528 102.468 75.154 103.579 75.5449C104.95 76.0278 107.6 77.4386 108.762 78.3048C110.245 79.41 111.086 80.98 111.665 83.725C111.852 84.6103 111.891 85.13 111.897 86.8164C111.9 87.9313 111.868 89.0146 111.823 89.2236L111.743 89.6037H106.781C102.021 89.6037 101.819 89.597 101.819 89.4169ZM107.394 85.9738C107.394 85.5938 107.325 85.0506 107.24 84.7669L107.087 84.251L105.971 84.6196C105.094 84.9096 104.869 85.0211 104.918 85.1424C104.952 85.2273 105.005 85.557 105.035 85.8753L105.09 86.4539L105.507 86.5085C106.098 86.5858 106.574 86.6301 107.013 86.6488L107.393 86.665L107.394 85.9738ZM104.657 80.9421C104.657 80.3751 104.275 79.5172 103.777 78.9625C103.287 78.4177 102.761 78.0768 102.629 78.2184C102.585 78.2648 102.338 78.6972 102.08 79.1789L101.61 80.0547L101.918 80.3632C102.088 80.5329 102.255 80.8115 102.289 80.9824L102.351 81.293H103.504H104.657L104.657 80.9421ZM114.134 89.4286C114.28 89.072 114.316 85.8629 114.186 84.7596C113.933 82.6085 113.229 80.3459 112.412 79.0514L112.068 78.5057L112.762 78.4762C115.871 78.3437 118.957 81.2683 119.823 85.1668C120.051 86.1942 120.035 88.0342 119.791 88.8948L119.604 89.5537L116.832 89.5806C114.216 89.606 114.064 89.5975 114.134 89.4286ZM88.2464 72.5688C87.7218 72.3508 87.2719 72.1517 87.2464 72.1262C87.221 72.1008 87.4107 71.5812 87.668 70.9717C88.4385 69.1462 88.3546 68.8974 86.3574 67.085C84.7878 65.6606 84.2301 64.8988 83.8131 63.6098C83.3368 62.1375 83.489 60.6815 84.2279 59.6408C84.4209 59.369 84.7064 58.9334 84.8623 58.6728C85.1923 58.121 85.3089 58.0823 86.6411 58.0823H87.5535L87.4874 58.4961C87.4082 58.9911 87.0551 59.7118 86.6315 60.2427C86.1408 60.8578 85.9682 61.4245 86.0394 62.1869C86.1369 63.2311 86.4793 63.8205 87.5537 64.7938C89.256 66.336 89.839 66.9841 90.223 67.7611C90.6789 68.6834 90.7683 69.4483 90.5201 70.3031C90.3123 71.0191 89.4014 72.9854 89.2831 72.9734C89.2373 72.969 88.7709 72.7867 88.2464 72.5688ZM95.028 70.1772C94.5542 69.9825 94.1328 69.791 94.0917 69.7516C94.0505 69.7122 94.2206 69.2027 94.4697 68.6196C94.9948 67.3902 95.0449 66.885 94.702 66.2749C94.5785 66.055 93.8373 65.2923 93.055 64.5801C91.4658 63.1332 91.0485 62.5521 90.6082 61.1737C90.2204 59.9593 90.2715 58.6589 90.7438 57.7276C90.8287 57.5603 91.1132 57.1271 91.3763 56.7647C91.6394 56.4024 91.883 56.0261 91.9178 55.9285C91.9663 55.7925 92.0963 55.7511 92.4761 55.7511C92.7484 55.7511 93.2516 55.7217 93.5942 55.686C94.202 55.6225 94.2172 55.6267 94.2167 55.8633C94.2155 56.3468 93.9981 56.8683 93.4565 57.6868C92.7586 58.7415 92.6573 59.0484 92.743 59.8486C92.8477 60.8271 93.1975 61.4616 94.0855 62.2844C96.0822 64.1347 96.6106 64.7122 96.9618 65.4285C97.2752 66.0678 97.3084 66.2191 97.3062 66.9996C97.3033 67.8088 97.2693 67.9478 96.7558 69.2062C96.3709 70.1494 96.1604 70.5465 96.0487 70.5402C95.9612 70.5358 95.5019 70.3719 95.028 70.1772ZM102.478 68.6658C102.032 68.4814 101.544 68.2855 101.393 68.2305L101.119 68.1306L101.524 67.1861C102.399 65.1425 102.358 64.9746 100.569 63.342C98.9031 61.8215 98.6328 61.5091 98.1665 60.5656C97.6195 59.4589 97.4205 58.6187 97.4943 57.7276C97.5894 56.5799 97.6813 56.3642 98.749 54.7859C98.9281 54.5212 99.0877 54.2721 99.1038 54.2324C99.1198 54.1927 99.6741 54.1299 100.335 54.093L101.538 54.0258L101.468 54.407C101.37 54.9378 101.051 55.6347 100.713 56.0571C100.184 56.7182 99.9946 57.2108 99.9946 57.9224C99.9946 59.0104 100.28 59.611 101.251 60.5655C101.704 61.0115 102.315 61.5737 102.609 61.8149C103.302 62.3858 104.087 63.4296 104.363 64.1492C104.795 65.2739 104.639 66.2304 103.714 68.128L103.289 69.001L102.478 68.6658Z" fill="white"/>
<path d="M90.0046 190.834C79.5498 190.166 70.2108 187.697 57.4915 182.24C50.1481 179.09 45.3446 176.628 41.2651 173.926C35.5595 170.145 30.3854 165.797 29.7324 164.232C29.5261 163.738 28.0995 162.045 26.562 160.47C25.0246 158.895 23.3522 157.133 22.8456 156.554C22.339 155.975 21.7775 155.558 21.5979 155.627C21.1793 155.787 19.8117 154.374 20.0354 154.012C20.1284 153.862 20.306 153.802 20.4302 153.879C20.5544 153.955 19.6337 152.669 18.3843 151.019C17.1316 149.365 15.9324 148.02 15.7111 148.02C15.1539 148.02 14.572 147.088 15.061 146.978C15.3126 146.922 15.0433 146.32 14.1188 144.878C13.4068 143.766 12.3759 142.002 11.828 140.957C11.2802 139.912 10.7107 139.102 10.5624 139.157C10.2274 139.281 8.64691 136.139 8.94999 135.952C9.07058 135.877 8.60147 134.5 7.90664 132.891C7.1299 131.093 6.60448 129.487 6.54257 128.722L6.44258 127.476L7.72871 129.842C8.43604 131.143 9.55968 133.363 10.2257 134.775C12.2761 139.122 13.5857 140.834 16.8759 143.467C17.4263 143.908 18.4879 145.141 19.2348 146.206C23.3779 152.118 30.8044 159.953 36.8544 164.793C42.0029 168.913 51.6102 175.187 56.6508 177.722C60.1197 179.466 69.112 182.04 75.4907 183.115C82.8265 184.351 93.1524 185.032 99.9787 184.729C102.581 184.614 105.494 184.57 106.453 184.631C110.498 184.89 115.406 184.737 117.264 184.293C121.173 183.361 124.401 181.87 128.615 179.051C129.848 178.227 131.697 177.071 132.724 176.483C133.751 175.896 134.499 175.414 134.387 175.413C134.275 175.413 132.818 175.905 131.15 176.508C119.47 180.731 107.647 182.24 93.7534 181.283C86.9706 180.816 84.6947 180.566 80.8049 179.86C74.0557 178.636 68.2479 176.735 60.7595 173.299C51.6236 169.108 47.2037 166.773 45.5119 165.244C44.5782 164.401 43.5915 162.838 43.5652 162.161C43.5578 161.985 42.8615 161.512 42.0167 161.111L40.4807 160.382L41.2199 160.146C41.6265 160.016 42.2136 159.677 42.5247 159.394L43.0902 158.88L41.9115 157.683C40.7443 156.498 40.2774 156.297 39.6357 156.704C39.3122 156.909 39.506 157.932 40.2317 159.848C40.4178 160.339 40.4123 160.339 39.8201 159.836C38.4978 158.713 38.3758 158.654 38.5208 159.208C39.2542 162.013 26.4682 149.881 25.6374 146.984C25.5068 146.528 25.3999 145.839 25.3999 145.452C25.3999 144.498 23.5125 141.855 21.2769 139.678C20.2924 138.719 18.9298 137.079 18.2488 136.032C14.1982 129.808 10.6057 117.309 9.95613 107.182C9.75276 104.013 9.511 102.109 9.18086 101.081C8.34398 98.4755 8.11105 95.193 8.43059 90.5073C9.15233 79.9206 11.7353 70.9114 17.3212 59.4965C19.7866 54.4583 21.7923 51.0989 25.6489 45.5478C27.2239 43.2808 28.5467 41.2898 28.5886 41.1233C28.7322 40.5517 24.6655 44.9864 22.8936 47.3335C20.4229 50.6061 18.4411 53.8278 16.4414 57.8223C13.6828 63.3324 12.2846 67.1644 9.33424 77.3008C8.55692 79.9715 7.83003 82.3201 7.719 82.5201C7.39872 83.0972 7.09182 80.7224 7.14123 78.0479C7.18682 75.5965 7.56107 73.9035 9.5635 67.1037C10.0657 65.3985 10.4396 63.8297 10.3948 63.6175C10.186 62.6312 6.95638 71.935 5.59775 77.4372C3.389 86.3819 2.63565 93.2393 2.62418 104.501C2.62418 109.258 2.533 112.843 2.43286 112.469C1.50171 108.997 1.27187 91.6888 2.07184 85.2692C2.79755 79.4441 4.50073 71.0341 5.47158 68.4804C5.86553 67.4441 5.50246 67.7443 4.96762 68.8967L4.47676 69.955L4.6244 68.9589C4.83866 67.5132 7.71135 60.3782 9.93804 55.7614C22.0878 30.5696 40.3977 15.0207 64.9094 9.07936C68.8001 8.1363 77.0943 5.68186 77.494 5.35528C77.5903 5.27646 76.3297 5.24675 74.6926 5.28896C72.9181 5.33484 71.7159 5.26999 71.7159 5.12855C71.7159 4.59663 73.1793 3.37659 74.0967 3.14361C76.7598 2.46734 77.1683 2.44355 80.3307 2.78082C84.0147 3.17374 90.8188 3.06108 92.7574 2.57507L94.0024 2.26293L93.1309 2.0559C91.5813 1.68782 78.6201 1.48711 77.9952 1.82154C77.639 2.01221 77.4432 2.02554 77.4432 1.85918C77.4432 1.69573 76.2357 1.59207 74.1438 1.57591C70.3742 1.5468 70.61 1.42493 76.0736 0.578122C80.7716 -0.150015 87.5082 -0.1928 94.0976 0.463707C98.1303 0.865458 99.206 0.896173 100.639 0.650475C102.854 0.270606 103.604 0.289024 104.197 0.737818C104.463 0.938899 104.855 1.10547 105.069 1.10799C105.282 1.11093 106.409 1.51361 107.574 2.00382C109.144 2.66494 110.655 3.04992 113.425 3.49455C125.754 5.4731 137.396 10.0393 147.652 16.9193C152.415 20.1139 156.245 23.2522 161.438 28.2139C162.97 29.6778 164.616 31.1415 165.095 31.4668C166.492 32.4149 168.053 34.0099 167.921 34.3544C167.854 34.5289 168.48 35.4222 169.311 36.3395C170.142 37.2568 170.822 38.1081 170.822 38.2312C170.822 38.3544 171.037 38.4551 171.299 38.4551C171.584 38.4551 172.145 38.9578 172.69 39.7002C173.193 40.3849 173.718 40.9452 173.858 40.9452C173.998 40.9452 174.046 41.1196 173.964 41.3327C173.875 41.5649 174.198 42.2385 174.771 43.0135C176.413 45.237 178.029 47.8808 177.796 47.9631C177.438 48.0893 178.855 50.0895 179.525 50.4044C180.004 50.6297 180.06 50.737 179.785 50.9066C179.509 51.0773 179.496 51.2426 179.72 51.6988C179.877 52.0158 180.071 52.516 180.153 52.8102C180.428 53.7962 181.757 55.3879 182.305 55.3879C182.73 55.3879 182.801 55.4981 182.683 55.9701C182.598 56.3061 182.689 56.7537 182.897 57.0284C183.095 57.2902 183.267 57.3924 183.278 57.2554C183.29 57.1185 183.522 57.6788 183.794 58.5005C184.28 59.9689 184.353 60.2414 184.665 61.7377C184.751 62.1485 185.054 62.9049 185.338 63.4185C185.752 64.1667 185.999 64.3523 186.582 64.3523C187.127 64.3523 187.274 64.2583 187.167 63.9788C186.928 63.3571 187.154 63.5533 187.878 64.5991C188.379 65.3219 188.496 65.6786 188.306 65.9071C188.122 66.1293 188.146 66.4034 188.389 66.8431C188.579 67.1851 188.737 67.7244 188.742 68.0415C188.747 68.3587 188.871 68.8421 189.017 69.1158C189.208 69.4728 189.205 69.7081 189.006 69.9488C188.815 70.1786 188.809 70.3347 188.987 70.4447C189.13 70.533 189.371 70.8367 189.522 71.1195C189.727 71.5021 189.724 71.5887 189.513 71.4577C189.356 71.361 189.053 71.4273 188.839 71.605C188.52 71.8693 188.481 72.2472 188.621 73.6759C188.824 75.7349 188.915 75.937 189.443 75.5076C189.786 75.2293 189.817 75.2481 189.669 75.6432C189.268 76.7113 189.213 77.3355 189.458 78.038C189.619 78.498 189.629 78.8394 189.484 78.9287C189.075 79.1816 189.232 80.0244 189.748 80.3468C190.33 80.7101 190.433 81.4099 189.873 81.195C189.667 81.1162 189.5 81.0762 189.5 81.1061C189.5 81.1361 189.835 82.8413 190.242 84.8957C191.084 89.14 191.246 93.1382 190.62 94.2336C190.354 94.6987 190.262 95.8479 190.255 98.7781C190.248 102.094 190.189 102.7 189.873 102.7C189.591 102.7 189.499 103.002 189.499 103.924C189.499 104.598 189.383 105.187 189.242 105.234C188.96 105.328 188.394 107.38 188.138 109.237C188.003 110.212 188.043 110.419 188.363 110.419C188.626 110.419 188.752 110.653 188.752 111.141C188.752 111.649 189.002 112.081 189.596 112.603C190.135 113.076 190.37 113.457 190.246 113.656C190.14 113.828 190.101 114.375 190.16 114.871C190.284 115.923 189.889 116.739 189.527 116.177C189.09 115.498 188.752 116.193 188.752 117.772C188.752 119.001 188.676 119.339 188.42 119.241C188.237 119.17 187.855 119.314 187.572 119.56C187.105 119.964 185.417 123.894 184.237 127.325C183.982 128.063 183.672 128.792 183.548 128.944C183.423 129.095 182.32 131.013 181.098 133.204C179.875 135.395 178.146 138.309 177.256 139.678C176.365 141.048 175.434 142.56 175.187 143.04C174.939 143.519 174.669 144.035 174.585 144.187C174.121 145.033 169.971 150.991 168.369 153.112C159.397 164.987 148.025 174.526 134.963 181.132C123.346 187.008 112.156 190.081 99.6019 190.845C95.1117 191.118 94.4353 191.117 90.0063 190.835L90.0046 190.834ZM83.1475 188.254C82.9798 188.087 76.6635 187.313 76.5324 187.444C76.4296 187.547 77.031 187.662 80.4306 188.194C81.3307 188.335 83.2713 188.378 83.1475 188.254ZM123.887 176.048C130.096 174.408 137.329 171.482 143.036 168.301C145.779 166.772 151.331 163.131 152.519 162.082C153.35 161.349 153.515 161.268 147.842 164.368C146.501 165.1 145.314 165.7 145.203 165.7C145.092 165.7 144.798 165.925 144.549 166.199C144.301 166.474 143.975 166.674 143.826 166.643C143.677 166.612 141.861 167.447 139.791 168.5C135.68 170.59 132.162 172.087 127.743 173.629C124.686 174.696 119.651 176.902 120.272 176.903C120.478 176.903 122.104 176.518 123.887 176.048ZM104.336 174.945C104.336 174.857 103.803 174.829 103.153 174.882C102.365 174.947 102.126 175.036 102.438 175.148C102.965 175.337 104.336 175.191 104.336 174.945ZM106.854 173.611C107.679 173.171 108.592 172.95 110.091 172.828C111.555 172.71 112.57 172.469 113.487 172.024C114.825 171.375 115.326 170.739 114.145 171.188C113.788 171.323 112.864 171.475 112.091 171.525C111.318 171.575 108.5 171.769 105.83 171.957L100.974 172.298L103.464 172.423L105.954 172.548L103.713 172.885C102.481 173.07 101.08 173.301 100.601 173.399L99.729 173.575L100.476 174C101.63 174.657 105.315 174.432 106.854 173.611ZM85.6599 173.809C85.6599 173.44 85.3985 173.325 83.9168 173.039C83.1004 172.882 83.0711 172.898 83.4535 173.295C83.678 173.529 84.2383 173.809 84.6985 173.917C85.1588 174.026 85.5634 174.127 85.5976 174.141C85.6319 174.154 85.6599 174.006 85.6599 173.809ZM98.3594 172.141C97.1953 172.026 95.1783 171.825 93.8772 171.695L91.5116 171.457L94.0801 171.569C96.9742 171.695 97.3663 171.329 94.6316 171.054C92.5697 170.847 90.23 171.306 90.6666 171.832C91.0028 172.237 92.1549 172.334 96.7409 172.343C100.247 172.35 100.346 172.337 98.3594 172.141ZM124.409 171.524C125.648 170.693 126.782 169.553 126.575 169.346C126.487 169.258 126.053 169.186 125.611 169.186C124.736 169.186 124.506 169.504 124.506 170.714V171.455L123.945 170.848C123.44 170.302 123.251 170.258 122.034 170.399L120.683 170.555L121.607 171.365C122.724 172.344 123.151 172.368 124.409 171.524ZM86.4069 171.809C86.4069 171.497 85.3285 171.172 84.8412 171.337C84.3234 171.513 84.3352 171.534 85.0373 171.695C86.0142 171.919 86.4069 171.951 86.4069 171.809ZM106.079 171.191C107.191 170.993 107.188 170.991 105.581 170.964C104.691 170.949 103.794 171.045 103.589 171.178C103.124 171.478 104.424 171.485 106.079 171.191ZM80.9074 169.041C81.0782 168.87 80.8418 168.742 80.1878 168.65C79.7419 168.587 79.5456 168.693 79.4783 169.032C79.3986 169.434 79.4872 169.476 80.0942 169.323C80.4841 169.225 80.85 169.098 80.9074 169.041ZM136.633 167.534C136.47 167.372 134.769 168.023 134.198 168.466C133.743 168.819 133.976 168.772 135.151 168.272C136.008 167.908 136.674 167.576 136.633 167.534ZM71.0927 166.933C70.8188 166.808 69.976 166.481 69.2198 166.206C68.4637 165.931 67.2311 165.327 66.4807 164.863C64.2449 163.481 61.7548 162.192 61.7548 162.416C61.7548 162.766 62.8137 163.62 63.9959 164.222C65.7035 165.092 70.795 167.164 71.2172 167.162C71.4598 167.159 71.4162 167.081 71.0927 166.933ZM63.9959 162.84C63.9959 162.773 63.2955 162.368 62.4396 161.939C60.6734 161.053 60.6721 161.204 62.4366 162.24C63.6067 162.926 63.9959 163.076 63.9959 162.84ZM41.6749 149.406C41.0091 148.647 40.3737 148.025 40.2629 148.023C40.1522 148.02 40.6503 148.689 41.3701 149.507C42.0898 150.324 42.7252 150.947 42.782 150.89C42.839 150.833 42.3407 150.165 41.6749 149.406ZM38.0987 142.066C38.0987 141.817 36.1676 139.304 35.9764 139.304C35.6198 139.304 35.9661 140.109 36.7625 141.131C37.6212 142.233 38.0987 142.567 38.0987 142.066ZM43.9853 129.718C43.765 129.144 43.3467 129.486 43.5092 130.108C43.5988 130.45 43.7268 130.539 43.8924 130.373C44.0292 130.236 44.071 129.942 43.9853 129.718ZM25.2386 121.438C24.9418 120.242 24.4058 119.135 24.1241 119.135C23.8413 119.135 23.8755 119.274 24.5985 121.063C25.0762 122.246 25.501 122.495 25.2386 121.438ZM22.5341 112.265C22.0426 110.643 21.5754 109.257 21.4958 109.183C21.3339 109.034 21.5566 110.888 21.9291 112.791C22.1842 114.094 23.163 115.98 23.3311 115.493C23.3842 115.339 23.0256 113.886 22.5341 112.265ZM32.5016 111.249C32.3537 110.066 32.4161 109.644 32.889 108.635C33.2778 107.804 33.6022 107.431 33.9347 107.431C34.2753 107.431 34.3717 107.314 34.2633 107.031C34.1789 106.811 33.8213 105.494 33.4688 104.105C32.9217 101.949 32.8519 101.269 32.9921 99.4627C33.1279 97.7124 33.0459 96.8151 32.5179 94.2776C31.936 91.481 31.9123 91.1455 32.25 90.4925C32.749 89.5275 32.7216 89.4229 32.0157 89.6C31.4525 89.7413 31.3915 89.6584 31.1292 88.3948C30.8125 86.8694 30.9758 85.6716 31.9516 82.3614C32.5829 80.2203 32.5651 79.2094 31.8546 76.8381C31.5485 75.8166 31.5341 75.8066 30.3605 75.8066H29.1755L28.9258 76.9894C28.7885 77.64 28.373 80.0205 28.0024 82.2795L27.3286 86.3869L27.7545 89.3764C27.9887 91.0206 28.3929 94.0303 28.6526 96.0646C29.1882 100.259 29.6413 102.786 30.3893 105.751C31.1207 108.651 32.3661 112.66 32.5353 112.66C32.6137 112.66 32.5986 112.025 32.5016 111.249ZM30.8774 94.0048C30.8774 93.5185 31.1891 92.9977 31.4015 93.129C31.7713 93.3575 31.6518 94.2334 31.2509 94.2334C31.0455 94.2334 30.8774 94.1305 30.8774 94.0048ZM15.0505 54.4209C15.6614 53.2044 16.0921 52.1399 16.0075 52.0553C15.5749 51.6227 15.1113 52.0933 14.0478 54.0444C13.1098 55.765 12.9478 56.2304 13.2254 56.4062C13.4156 56.5266 13.6541 56.6268 13.7554 56.6289C13.8569 56.6319 14.4395 55.6374 15.0505 54.4209ZM96.1183 2.34831C95.6278 2.03127 95.0509 2.03127 95.2468 2.34831C95.3315 2.48521 95.6462 2.59561 95.9463 2.5935C96.3898 2.59056 96.422 2.54453 96.1183 2.34831ZM75.6401 181.211C75.9498 181.152 76.398 181.154 76.6361 181.216C76.8742 181.278 76.6208 181.327 76.0729 181.324C75.5251 181.321 75.3303 181.271 75.6401 181.211ZM72.2133 180.888C71.8397 180.768 72.2381 180.742 73.2093 180.823C74.0995 180.898 74.8746 180.999 74.9316 181.049C75.1326 181.222 72.828 181.086 72.2133 180.888ZM38.9058 164.326C37.7771 163.57 36.8537 162.891 36.8537 162.817C36.8537 162.648 37.0608 162.771 39.2815 164.257C40.8241 165.29 41.3186 165.7 41.0224 165.7C40.987 165.7 40.0345 165.081 38.9058 164.326ZM2.3808 115.96C2.2911 115.583 2.15919 115.079 2.08802 114.839C2.00861 114.57 2.08802 114.403 2.30683 114.403C2.5158 114.403 2.75785 114.852 2.91167 115.524C3.11034 116.392 3.09783 116.644 2.85578 116.644C2.68417 116.644 2.47065 116.336 2.3808 115.96ZM0.747033 106.953C0.747033 106.828 0.67939 106.548 0.595864 106.331C0.497337 106.072 0.581157 105.937 0.844972 105.937C1.1057 105.937 1.2451 106.154 1.2451 106.56C1.2451 106.902 1.13334 107.182 0.995995 107.182C0.859235 107.182 0.747033 107.079 0.747033 106.953ZM0 94.7108C0 93.4108 0.0823508 92.974 0.311314 93.0498C0.508366 93.1149 0.649537 93.762 0.696153 94.8136C0.756445 96.1776 0.696151 96.4746 0.384985 96.4746C0.0739664 96.4746 0 96.1358 0 94.7108ZM15.4387 36.8506C15.4387 36.4878 16.5213 34.993 16.703 35.1051C16.9352 35.2487 15.9442 36.9526 15.6255 36.9578C15.5226 36.9608 15.4387 36.9114 15.4387 36.8506ZM23.228 28.4649C23.0047 28.2415 23.2324 27.9062 24.1973 27.0389C27.0799 24.4472 27.4676 24.4607 25.0706 27.0695C23.8846 28.3602 23.4514 28.6882 23.228 28.4649ZM33.3675 20.0238C34.5852 18.9267 38.566 16.0933 41.0869 14.5294C43.6455 12.9421 47.9639 10.8609 52.6659 8.94901C56.4653 7.40414 57.2799 6.9733 59.1104 5.54064C60.6107 4.36643 61.5503 4.29907 62.727 5.28142L63.5558 5.97338L61.348 7.00573C60.1337 7.57349 57.0778 8.90431 54.557 9.96308C50.1109 11.8306 42.7453 15.4045 35.8576 19.0364C33.1482 20.4651 32.6651 20.6567 33.3675 20.0238ZM49.0987 7.82079C49.1479 7.67297 49.5505 7.32267 49.9933 7.04232C50.6123 6.65035 50.7983 6.6139 50.7983 6.88448C50.7983 7.07799 50.3957 7.4283 49.9037 7.66294C49.4116 7.89758 49.0494 7.96862 49.0987 7.82079ZM59.6132 4.05101C59.364 3.64768 59.7722 3.43556 61.673 2.98066C64.4085 2.32601 64.6453 2.65034 62.0692 3.52343C60.6273 4.01213 59.7109 4.20899 59.6132 4.05101Z"




 fill="rgb(255 65 82)"/>
<path d="M84.9815 127.369C84.5474 126.935 84.5564 126.448 85.0291 124.831C85.285 123.955 85.4803 123.228 85.4633 123.214C85.4463 123.201 84.6365 122.652 83.6637 121.994C81.276 120.379 80.267 119.593 78.8589 118.25C76.5404 116.039 74.8254 112.725 74.0331 108.925C73.897 108.272 73.7727 106.456 73.717 104.31L73.625 100.771L74.0055 100.311L74.3859 99.8513L70.405 94.8531C61.3677 83.5061 60.0858 81.8782 59.8845 81.4925C59.4348 80.6305 59.7666 79.5391 60.6406 79.0062C61.2669 78.6243 61.9222 78.6245 62.5496 79.0073C62.8211 79.1729 64.482 81.1198 66.2405 83.3337C71.3126 89.7194 76.813 96.6382 78.1785 98.3499L79.4343 99.9242L80.6261 99.9271C81.2817 99.9283 81.8171 99.8773 81.8161 99.8139C81.8161 99.7504 81.6338 99.1449 81.4135 98.4682C80.371 95.2672 80.9948 91.6815 82.7521 90.7728C83.0153 90.6366 83.2481 90.5476 83.2693 90.575C83.291 90.6024 84.1639 92.7183 85.2101 95.277L87.1123 99.9292H88.3991H89.6859L89.5735 99.4294C89.2725 98.0878 89.679 96.4883 90.5539 95.5741C90.7819 95.3357 91.3576 94.9268 91.8329 94.6652C92.4357 94.3337 92.8468 93.9615 93.1911 93.4355C94.0601 92.1083 95.1885 91.7583 96.6077 92.3757C98.0296 92.9944 98.5146 94.0546 98.1229 95.6876C97.9564 96.3817 97.9655 96.6456 98.1862 97.5271C98.3563 98.2051 98.4091 98.792 98.3409 99.2471L98.2377 99.9379L100.435 99.8952L102.633 99.8525L103.348 97.6907C103.741 96.5017 104.23 95.2241 104.436 94.8515C104.929 93.9585 105.665 93.4701 106.518 93.4701C107.159 93.4701 107.188 93.4493 107.366 92.8531C107.568 92.1805 107.858 91.8493 108.11 92.0049C108.33 92.141 108.311 92.5471 108.05 93.2868C107.856 93.835 107.858 93.9344 108.06 94.1023C109.118 94.9802 108.922 97.3868 107.65 99.1429C107.399 99.4894 107.194 99.8081 107.194 99.8511C107.194 99.894 108.162 99.9294 109.347 99.9294C110.531 99.9294 111.5 99.8776 111.501 99.8139C111.501 99.7505 112.02 96.9372 112.654 93.5621C113.288 90.1871 113.807 87.2977 113.807 87.1413C113.807 86.3312 115.438 87.3846 116.234 88.7087C117.132 90.203 117.611 92.6026 117.414 94.6234C117.283 95.9738 116.706 98.289 116.282 99.1662C116.105 99.5331 115.96 99.8548 115.96 99.8812C115.96 99.9075 116.785 99.9292 117.794 99.9292C119.611 99.9292 119.632 99.9336 119.965 100.352C120.295 100.767 120.3 100.843 120.218 104.312C120.113 108.829 119.712 110.832 118.345 113.694C116.781 116.966 114.939 118.859 110.269 121.993C109.297 122.646 108.477 123.203 108.447 123.232C108.418 123.261 108.608 123.975 108.87 124.819C109.435 126.637 109.438 126.685 109.028 127.207L108.709 127.612H96.9662C86.5006 127.612 85.1967 127.585 84.9815 127.369ZM105.09 86.4539C104.501 86.1637 104.049 85.3041 104.19 84.7432C104.348 84.1129 105.14 83.4724 105.76 83.4724C106.381 83.4724 107.113 84.0993 107.283 84.7762C107.44 85.4003 106.997 86.21 106.351 86.4799C105.7 86.7519 105.694 86.7519 105.09 86.4539ZM97.6399 86.0171C97.1263 85.7283 96.6955 84.8385 96.8232 84.3299C96.9451 83.8444 97.5944 83.1867 98.0698 83.0674C98.9095 82.8566 99.9631 83.7861 99.9645 84.7388C99.9645 85.7404 98.5412 86.5239 97.6399 86.0171ZM104.441 80.8731C104.054 80.5117 103.964 80.3048 103.964 79.7847C103.964 78.3616 105.628 77.6882 106.593 78.7211C107.95 80.1737 105.894 82.2301 104.441 80.8731ZM100.411 75.7665C99.7821 75.0931 99.7925 74.2874 100.438 73.6415C101.084 72.9957 101.89 72.9854 102.563 73.6145C103.596 74.5793 102.923 76.2441 101.5 76.2441C100.98 76.2441 100.773 76.1534 100.411 75.7665ZM106.95 72.3771C106.558 72.1866 106.117 71.4685 106.117 71.0198C106.117 70.2057 106.838 69.4859 107.659 69.4807C108.341 69.4763 108.856 69.8306 109.134 70.497C109.666 71.7709 108.237 73.0015 106.95 72.3771ZM111.006 68.4927C109.234 68.0156 107.817 66.3165 107.783 64.627C107.772 64.0226 107.971 63.6086 109.579 60.9065C113.34 53.5316 115.088 51.2944 120.513 56.6723C122.636 58.8033 123.171 59.974 122.38 60.7628C121.465 61.6756 112.896 68.3675 112.438 68.5266C111.828 68.7384 111.928 68.7408 111.006 68.4927ZM111.621 67.7647C111.677 67.4728 111.327 67.2993 111.04 67.4767C110.761 67.6492 110.977 68.1275 111.305 68.0643C111.452 68.0361 111.594 67.9011 111.621 67.7647ZM109.962 66.8463C109.962 66.6666 109.854 66.5552 109.68 66.5552C109.282 66.5552 109.179 66.7047 109.354 67.0311C109.54 67.378 109.962 67.2497 109.962 66.8463ZM108.926 65.4402C109.025 65.158 108.882 64.8635 108.647 64.8635C108.377 64.8635 108.221 65.13 108.328 65.4091C108.434 65.6828 108.835 65.7037 108.926 65.4402Z" fill="white"/>
</svg>
