<svg width="100" height="100" viewBox="0 0 190 190" fill="none" xmlns="http://www.w3.org/2000/svg">
<path d="M89.5108 189.787C79.1134 189.122 69.8256 186.668 57.176 181.241C49.8729 178.107 45.0958 175.659 41.0387 172.971C35.3644 169.212 30.2187 164.887 29.5692 163.331C29.3641 162.84 27.9453 161.156 26.4163 159.59C24.8873 158.024 23.2241 156.271 22.7202 155.695C22.2164 155.119 21.658 154.704 21.4794 154.773C21.0631 154.933 19.703 153.527 19.9255 153.167C20.0179 153.018 20.1945 152.958 20.3181 153.034C20.4416 153.111 19.526 151.831 18.2834 150.191C17.0376 148.546 15.845 147.208 15.6248 147.208C15.0707 147.208 14.492 146.281 14.9783 146.172C15.2285 146.116 14.9603 145.518 14.0413 144.083C13.3331 142.978 12.3079 141.223 11.7631 140.184C11.2183 139.144 10.6519 138.339 10.5045 138.394C10.1713 138.517 8.5994 135.392 8.90092 135.206C9.02128 135.132 8.55428 133.762 7.86322 132.162C7.0908 130.374 6.56819 128.777 6.5066 128.015L6.40642 126.777L7.68554 129.13C8.38906 130.424 9.50654 132.631 10.1688 134.035C12.2079 138.358 13.5104 140.061 16.7825 142.68C17.33 143.118 18.3857 144.344 19.1285 145.404C23.2489 151.284 30.6346 159.075 36.6514 163.889C41.7717 167.986 51.3263 174.226 56.3392 176.747C59.7891 178.481 68.7321 181.041 75.0758 182.11C82.3713 183.34 92.6406 184.017 99.4295 183.716C102.017 183.601 104.915 183.557 105.868 183.618C109.891 183.876 114.772 183.723 116.62 183.282C120.507 182.355 123.718 180.872 127.909 178.069C129.134 177.249 130.973 176.1 131.995 175.515C133.016 174.931 133.761 174.452 133.649 174.451C133.537 174.451 132.089 174.94 130.43 175.539C118.814 179.739 107.056 181.241 93.2383 180.289C86.4927 179.824 84.2293 179.575 80.3608 178.874C73.6487 177.656 67.8727 175.765 60.4254 172.349C51.3397 168.18 46.944 165.858 45.2615 164.338C44.3329 163.499 43.3516 161.945 43.3254 161.272C43.3181 161.096 42.6256 160.626 41.7854 160.227L40.2578 159.502L40.993 159.267C41.3973 159.138 41.9813 158.801 42.2906 158.52L42.853 158.008L41.6808 156.818C40.52 155.639 40.0557 155.44 39.4175 155.844C39.0958 156.048 39.2885 157.065 40.0102 158.971C40.1953 159.46 40.1898 159.46 39.6009 158.959C38.2859 157.842 38.1645 157.784 38.3087 158.335C39.0381 161.124 26.3223 149.059 25.496 146.177C25.3661 145.724 25.2598 145.039 25.2598 144.654C25.2598 143.705 23.3827 141.077 21.1595 138.912C20.1803 137.958 18.8252 136.327 18.1479 135.286C14.1196 129.096 10.5467 116.666 9.90072 106.594C9.69855 103.442 9.458 101.549 9.1297 100.527C8.29744 97.9352 8.06582 94.6708 8.38356 90.0107C9.10142 79.4821 11.6701 70.5224 17.2254 59.1701C19.6773 54.1595 21.672 50.8185 25.5074 45.2979C27.0738 43.0434 28.3894 41.0633 28.431 40.8977C28.5739 40.3292 24.5294 44.7395 22.7672 47.0738C20.3101 50.3285 18.3392 53.5325 16.3504 57.5051C13.607 62.9849 12.2165 66.7959 9.28227 76.8767C8.50919 79.5327 7.78637 81.8685 7.67596 82.0674C7.35736 82.6413 7.05218 80.2795 7.10126 77.6197C7.1463 75.1818 7.5189 73.4981 9.5103 66.7356C10.0097 65.0397 10.3817 63.4796 10.337 63.2685C10.1293 62.2876 6.91752 71.5403 5.56628 77.0124C3.36971 85.908 2.62038 92.7278 2.60899 103.928C2.6046 108.658 2.51861 112.224 2.41881 111.852C1.49267 108.399 1.26414 91.1858 2.05965 84.8014C2.7815 79.0083 4.47522 70.6444 5.4408 68.1047C5.83263 67.0741 5.47122 67.3727 4.93967 68.5187L4.45148 69.5712L4.59828 68.5806C4.81139 67.1428 7.66831 60.047 9.88276 55.4555C21.9658 30.4019 40.1753 14.9383 64.5525 9.02955C68.4219 8.09166 76.6705 5.65069 77.0681 5.32591C77.1639 5.24752 75.9102 5.21797 74.2821 5.25994C72.5174 5.30557 71.3217 5.24108 71.3217 5.10042C71.3217 4.57141 72.7771 3.35806 73.6894 3.12636C76.3379 2.4538 76.7442 2.43015 79.8892 2.76557C83.5531 3.15632 90.3198 3.04429 92.2477 2.56094L93.486 2.25051L92.6192 2.04462C91.0781 1.67856 78.188 1.47895 77.5666 1.81154C77.2123 2.00117 77.0176 2.01443 77.0176 1.84898C77.0176 1.68642 75.8167 1.58334 73.7363 1.56727C69.9874 1.53831 70.2218 1.41711 75.6555 0.57495C80.3278 -0.149192 87.0274 -0.191742 93.5806 0.461163C97.5911 0.86071 98.6609 0.891245 100.086 0.646895C102.289 0.26911 103.035 0.287438 103.625 0.73377C103.889 0.933748 104.279 1.09941 104.492 1.10191C104.704 1.10483 105.825 1.50531 106.983 1.99282C108.544 2.65032 110.047 3.03319 112.802 3.47538C125.064 5.44307 136.641 9.98421 146.841 16.8265C151.578 20.0035 155.387 23.1246 160.552 28.0591C162.075 29.5149 163.712 30.9707 164.189 31.2942C165.578 32.2371 167.131 33.8233 166.999 34.1659C166.933 34.3394 167.555 35.2278 168.381 36.1401C169.208 37.0524 169.884 37.899 169.884 38.0215C169.884 38.144 170.098 38.2441 170.359 38.2441C170.641 38.2441 171.2 38.7441 171.742 39.4824C172.242 40.1634 172.765 40.7206 172.904 40.7206C173.043 40.7206 173.09 40.894 173.009 41.1059C172.92 41.3369 173.242 42.0068 173.811 42.7775C175.445 44.9888 177.051 47.6181 176.819 47.7C176.464 47.8255 177.873 49.8147 178.539 50.1279C179.016 50.3519 179.071 50.4586 178.798 50.6273C178.524 50.797 178.51 50.9615 178.734 51.4151C178.889 51.7304 179.083 52.2279 179.164 52.5205C179.437 53.501 180.759 55.084 181.304 55.084C181.726 55.084 181.798 55.1937 181.68 55.6631C181.596 55.9973 181.686 56.4423 181.893 56.7156C182.09 56.9759 182.26 57.0775 182.272 56.9413C182.284 56.8052 182.515 57.3623 182.785 58.1796C183.268 59.6399 183.341 59.9109 183.651 61.399C183.737 61.8076 184.038 62.5598 184.32 63.0706C184.732 63.8146 184.978 63.9992 185.558 63.9992C186.1 63.9992 186.246 63.9058 186.139 63.6277C185.902 63.0095 186.126 63.2047 186.847 64.2447C187.345 64.9636 187.461 65.3182 187.272 65.5455C187.089 65.7665 187.113 66.0391 187.355 66.4764C187.543 66.8165 187.701 67.3528 187.706 67.6682C187.71 67.9837 187.834 68.4644 187.98 68.7366C188.17 69.0917 188.166 69.3256 187.968 69.565C187.778 69.7936 187.772 69.9488 187.949 70.0583C188.091 70.146 188.331 70.4481 188.481 70.7293C188.685 71.1099 188.683 71.1959 188.473 71.0657C188.317 70.9694 188.015 71.0354 187.802 71.2122C187.485 71.4751 187.446 71.8508 187.586 73.2717C187.788 75.3194 187.878 75.5204 188.403 75.0934C188.744 74.8165 188.775 74.8353 188.628 75.2282C188.229 76.2905 188.175 76.9112 188.418 77.6099C188.578 78.0673 188.588 78.4069 188.444 78.4957C188.037 78.7472 188.193 79.5853 188.706 79.906C189.285 80.2673 189.387 80.9633 188.83 80.7496C188.626 80.6712 188.459 80.6314 188.46 80.6611C188.46 80.6909 188.792 82.3868 189.198 84.4299C190.035 88.651 190.196 92.6272 189.573 93.7166C189.309 94.1792 189.217 95.3221 189.21 98.2361C189.203 101.534 189.144 102.137 188.83 102.137C188.55 102.137 188.459 102.437 188.459 103.354C188.459 104.024 188.344 104.61 188.203 104.657C187.923 104.751 187.359 106.791 187.105 108.637C186.971 109.608 187.01 109.814 187.329 109.814C187.591 109.814 187.716 110.046 187.716 110.531C187.716 111.036 187.964 111.466 188.555 111.985C189.091 112.455 189.325 112.834 189.202 113.033C189.096 113.204 189.057 113.747 189.116 114.241C189.24 115.287 188.846 116.098 188.487 115.54C188.052 114.865 187.716 115.556 187.716 117.126C187.716 118.348 187.64 118.684 187.385 118.586C187.203 118.517 186.824 118.659 186.542 118.904C186.078 119.306 184.399 123.214 183.225 126.626C182.972 127.361 182.664 128.085 182.54 128.236C182.416 128.387 181.319 130.294 180.103 132.473C178.888 134.652 177.168 137.55 176.283 138.912C175.397 140.274 174.471 141.778 174.225 142.255C173.979 142.732 173.71 143.245 173.627 143.396C173.165 144.237 169.038 150.163 167.444 152.272C158.522 164.082 147.212 173.568 134.222 180.139C122.669 185.982 111.54 189.039 99.0547 189.798C94.5892 190.069 93.9155 190.068 89.5108 189.787ZM82.6914 187.222C82.5245 187.055 76.2429 186.285 76.1125 186.415C76.0102 186.518 76.6083 186.633 79.9893 187.162C80.8845 187.302 82.8144 187.345 82.6914 187.222ZM123.207 175.082C129.382 173.451 136.575 170.542 142.252 167.378C144.979 165.857 150.5 162.236 151.683 161.193C152.508 160.464 152.673 160.383 147.03 163.466C145.698 164.195 144.517 164.791 144.407 164.791C144.296 164.791 144.004 165.014 143.756 165.288C143.509 165.561 143.185 165.759 143.037 165.728C142.889 165.698 141.083 166.529 139.024 167.575C134.936 169.654 131.437 171.143 127.042 172.677C124.002 173.737 118.995 175.932 119.613 175.933C119.817 175.933 121.434 175.55 123.207 175.082ZM103.763 173.985C103.763 173.898 103.234 173.87 102.587 173.923C101.803 173.988 101.566 174.076 101.876 174.187C102.4 174.375 103.763 174.23 103.763 173.985ZM106.268 172.658C107.088 172.221 107.996 172.002 109.487 171.88C110.943 171.762 111.953 171.523 112.864 171.081C114.195 170.435 114.693 169.802 113.519 170.249C113.164 170.384 112.245 170.535 111.476 170.584C110.707 170.633 107.905 170.827 105.249 171.013L100.42 171.353L102.897 171.477L105.373 171.601L103.144 171.936C101.918 172.12 100.525 172.35 100.049 172.447L99.1818 172.623L99.9248 173.046C101.072 173.699 104.737 173.475 106.268 172.658ZM85.1899 172.856C85.1899 172.489 84.9299 172.374 83.4564 172.09C82.6444 171.933 82.6153 171.949 82.9956 172.345C83.2189 172.577 83.7761 172.855 84.2338 172.963C84.6916 173.071 85.0939 173.171 85.128 173.185C85.1621 173.198 85.1899 173.051 85.1899 172.856ZM97.8198 171.197C96.6621 171.082 94.6561 170.883 93.3622 170.753L91.0096 170.516L93.5639 170.628C96.4421 170.753 96.8321 170.389 94.1124 170.116C92.0618 169.91 89.7349 170.366 90.1691 170.89C90.5035 171.293 91.6493 171.389 96.2101 171.398C99.6969 171.405 99.7956 171.392 97.8198 171.197ZM123.726 170.583C124.959 169.756 126.086 168.623 125.881 168.417C125.793 168.329 125.362 168.258 124.922 168.258C124.052 168.258 123.823 168.574 123.823 169.778V170.514L123.265 169.911C122.763 169.368 122.575 169.324 121.365 169.464L120.021 169.62L120.94 170.425C122.051 171.398 122.475 171.422 123.726 170.583ZM85.9328 170.867C85.9328 170.556 84.8603 170.233 84.3757 170.397C83.8608 170.572 83.8725 170.593 84.5708 170.753C85.5423 170.975 85.9328 171.008 85.9328 170.867ZM105.497 170.251C106.603 170.055 106.6 170.053 105.001 170.026C104.116 170.011 103.225 170.107 103.02 170.239C102.558 170.538 103.851 170.544 105.497 170.251ZM80.4635 168.114C80.6333 167.944 80.3983 167.816 79.7478 167.725C79.3044 167.662 79.1092 167.768 79.0423 168.105C78.963 168.504 79.0511 168.546 79.6548 168.394C80.0425 168.297 80.4065 168.171 80.4635 168.114ZM135.883 166.615C135.722 166.454 134.03 167.101 133.462 167.542C133.009 167.893 133.241 167.846 134.41 167.349C135.261 166.987 135.924 166.656 135.883 166.615ZM70.7027 166.017C70.4303 165.893 69.5921 165.568 68.8401 165.294C68.088 165.021 66.8622 164.42 66.116 163.959C63.8924 162.584 61.416 161.302 61.416 161.525C61.416 161.873 62.4691 162.722 63.6448 163.321C65.343 164.186 70.4066 166.247 70.8265 166.245C71.0677 166.242 71.0244 166.164 70.7027 166.017ZM63.6448 161.946C63.6448 161.88 62.9483 161.477 62.097 161.05C60.3405 160.17 60.3392 160.32 62.0941 161.35C63.2577 162.033 63.6448 162.181 63.6448 161.946ZM41.4462 148.587C40.7841 147.832 40.1522 147.213 40.042 147.211C39.9319 147.208 40.4273 147.873 41.1431 148.686C41.8589 149.5 42.4908 150.119 42.5473 150.062C42.6039 150.005 42.1083 149.342 41.4462 148.587ZM37.8897 141.287C37.8897 141.039 35.9691 138.54 35.779 138.54C35.4244 138.54 35.7687 139.34 36.5608 140.357C37.4147 141.453 37.8897 141.785 37.8897 141.287ZM43.744 129.007C43.5248 128.436 43.1088 128.776 43.2705 129.394C43.3595 129.735 43.4869 129.823 43.6516 129.658C43.7876 129.522 43.8292 129.229 43.744 129.007ZM25.1002 120.772C24.8049 119.583 24.2719 118.481 23.9917 118.481C23.7105 118.481 23.7445 118.619 24.4636 120.399C24.9386 121.575 25.361 121.822 25.1002 120.772ZM22.4104 111.649C21.9216 110.036 21.457 108.657 21.3779 108.584C21.2168 108.435 21.4383 110.28 21.8088 112.172C22.0625 113.468 23.0359 115.344 23.2031 114.859C23.2559 114.706 22.8993 113.261 22.4104 111.649ZM32.3232 110.639C32.1762 109.462 32.2383 109.042 32.7085 108.039C33.0952 107.213 33.4178 106.842 33.7485 106.842C34.0872 106.842 34.1831 106.725 34.0753 106.444C33.9913 106.225 33.6357 104.915 33.2851 103.534C32.741 101.39 32.6716 100.714 32.811 98.917C32.9462 97.1763 32.8646 96.2839 32.3394 93.7603C31.7608 90.9792 31.7371 90.6455 32.073 89.996C32.5693 89.0363 32.542 88.9323 31.84 89.1085C31.2799 89.249 31.2192 89.1665 30.9583 87.9098C30.6434 86.3928 30.8058 85.2016 31.7763 81.9096C32.4041 79.7802 32.3864 78.7749 31.6798 76.4165C31.3754 75.4007 31.361 75.3907 30.1939 75.3907H29.0154L28.7671 76.567C28.6305 77.214 28.2173 79.5815 27.8487 81.8281L27.1787 85.9129L27.6022 88.886C27.8352 90.5212 28.2371 93.5144 28.4954 95.5376C29.028 99.7092 29.4786 102.222 30.2225 105.171C30.95 108.055 32.1885 112.042 32.3568 112.042C32.4347 112.042 32.4197 111.411 32.3232 110.639ZM30.708 93.4891C30.708 93.0055 31.018 92.4875 31.2292 92.6181C31.5969 92.8454 31.4781 93.7165 31.0794 93.7165C30.8751 93.7165 30.708 93.6141 30.708 93.4891ZM14.9679 54.1224C15.5755 52.9126 16.0038 51.8539 15.9197 51.7698C15.4894 51.3395 15.0284 51.8075 13.9706 53.7479C13.0379 55.459 12.8767 55.9219 13.1528 56.0967C13.3419 56.2165 13.5791 56.3162 13.6799 56.3183C13.7807 56.3212 14.3603 55.3322 14.9679 54.1224ZM95.591 2.33542C95.1031 2.02013 94.5294 2.02013 94.7242 2.33542C94.8085 2.47158 95.1214 2.58137 95.4199 2.57928C95.861 2.57635 95.893 2.53057 95.591 2.33542ZM75.2251 180.217C75.5331 180.158 75.9789 180.16 76.2156 180.221C76.4524 180.283 76.2004 180.332 75.6556 180.329C75.1108 180.326 74.917 180.276 75.2251 180.217ZM71.8171 179.896C71.4456 179.776 71.8418 179.75 72.8076 179.831C73.693 179.906 74.4638 180.006 74.5205 180.055C74.7204 180.228 72.4284 180.093 71.8171 179.896ZM38.6923 163.424C37.5698 162.673 36.6515 161.998 36.6515 161.924C36.6515 161.755 36.8574 161.878 39.066 163.356C40.6001 164.383 41.0919 164.791 40.7973 164.791C40.7621 164.791 39.8148 164.176 38.6923 163.424ZM2.36771 115.324C2.27835 114.949 2.14735 114.447 2.07653 114.209C1.99712 113.942 2.08092 113.776 2.29422 113.776C2.50192 113.776 2.74276 114.222 2.89566 114.89C3.09325 115.754 3.08081 116.005 2.84038 116.005C2.66972 116.005 2.45705 115.698 2.36771 115.324ZM0.742934 106.367C0.742934 106.242 0.675221 105.963 0.592606 105.748C0.494035 105.49 0.579441 105.356 0.840258 105.356C1.09966 105.356 1.23823 105.571 1.23823 105.975C1.23823 106.315 1.12679 106.594 0.990575 106.594C0.854419 106.594 0.742934 106.492 0.742934 106.367ZM0 94.1911C0 92.8984 0.0814595 92.4639 0.309561 92.5393C0.505547 92.6041 0.645974 93.2476 0.692334 94.2934C0.752441 95.65 0.696718 95.9453 0.382784 95.9453C0.0735299 95.9453 0 95.6084 0 94.1911ZM15.354 36.6485C15.354 36.2877 16.4308 34.801 16.6113 34.9126C16.8422 35.0553 15.8567 36.7498 15.5397 36.7551C15.4375 36.758 15.354 36.7089 15.354 36.6485ZM23.1006 28.3087C22.8784 28.0866 23.105 27.7531 24.0645 26.8905C26.9313 24.313 27.3169 24.3265 24.9331 26.921C23.7536 28.2046 23.3227 28.5309 23.1006 28.3087ZM33.1844 19.914C34.3954 18.8229 38.3544 16.005 40.8614 14.4497C43.406 12.8711 47.7007 10.8013 52.3769 8.89992C56.1555 7.36352 56.9657 6.93504 58.7861 5.51024C60.2782 4.34247 61.2126 4.27548 62.3828 5.25244L63.2071 5.94061L61.0114 6.96729C59.8038 7.53194 56.7646 8.85546 54.2577 9.90842C49.8359 11.7657 42.5108 15.32 35.6609 18.932C32.9663 20.3528 32.4858 20.5434 33.1844 19.914ZM48.8293 7.77788C48.8783 7.63087 49.2786 7.28249 49.719 7.00369C50.3346 6.61387 50.5196 6.57761 50.5196 6.84671C50.5196 7.03916 50.1192 7.38755 49.6299 7.6209C49.1405 7.85425 48.7803 7.9249 48.8293 7.77788ZM59.2861 4.02878C59.0382 3.62767 59.4442 3.4167 61.3346 2.9643C64.0551 2.31323 64.2906 2.6358 61.7286 3.5041C60.2946 3.99012 59.3832 4.18589 59.2861 4.02878Z"


 fill="rgb(255 65 82)"/>
<path d="M70.501 108.087C69.1115 104.54 67.9985 101.615 68.0277 101.585C68.0569 101.556 79.4132 101.533 93.264 101.533C113.342 101.533 118.448 101.558 118.45 101.659C118.451 101.728 117.331 104.654 115.96 108.16L113.467 114.536H93.2472H73.0273L70.501 108.087ZM71.4838 98.7856C72.7086 95.6717 75.2714 93.8716 78.4799 93.8716C81.6354 93.8716 84.3039 95.7101 85.2842 98.5595C85.3951 98.8814 85.4856 99.1831 85.4856 99.2298C85.4856 99.2766 82.2883 99.3149 78.3806 99.3149H71.2756L71.4838 98.7856ZM87.9048 99.1029C87.9048 98.7421 87.306 97.0792 86.9401 96.4237C85.8606 94.49 84.0068 92.9565 81.7812 92.156C81.4347 92.0314 81.1512 91.8911 81.1512 91.8444C81.1512 91.6996 82.169 90.9463 82.7839 90.6359C85.2564 89.3878 89.2092 90.0696 91.9177 92.2113C92.377 92.5745 92.8826 93.0763 93.0412 93.3265C93.7005 94.3661 95.0344 97.6938 95.3102 98.9872L95.38 99.3149H91.6423C87.9112 99.3149 87.9048 99.3145 87.9048 99.1029ZM97.6825 99.1285C97.6825 98.7863 96.8962 96.2547 96.4321 95.1026C95.6324 93.1174 94.994 91.9761 94.3114 91.3115C93.0647 90.0976 92.2197 89.4993 90.9433 88.9268C90.2702 88.625 89.7195 88.3492 89.7194 88.3139C89.719 88.1325 91.0767 87.0176 91.688 86.6975C92.4978 86.2735 94.0479 85.7186 95.5088 85.3297C96.9625 84.9427 98.3275 84.9439 99.4329 85.3326C100.797 85.8128 103.432 87.216 104.587 88.0773C106.062 89.1765 106.898 90.7379 107.475 93.4678C107.66 94.3483 107.699 94.8651 107.705 96.5422C107.708 97.6511 107.676 98.7284 107.632 98.9362L107.552 99.3143H102.617C97.8839 99.3143 97.6825 99.3076 97.6825 99.1285ZM103.227 95.7043C103.227 95.3263 103.158 94.7862 103.074 94.504L102.922 93.991L101.812 94.3575C100.939 94.646 100.716 94.7568 100.764 94.8775C100.798 94.9619 100.851 95.2898 100.881 95.6063L100.935 96.1818L101.35 96.236C101.938 96.313 102.412 96.357 102.848 96.3756L103.226 96.3917L103.227 95.7043ZM100.505 90.7002C100.505 90.1363 100.126 89.2831 99.6296 88.7315C99.1424 88.1896 98.6194 87.8506 98.4879 87.9914C98.4446 88.0376 98.1989 88.4676 97.9418 88.9466L97.4744 89.8177L97.7813 90.1245C97.95 90.2933 98.1159 90.5704 98.1499 90.7403L98.2116 91.0492H99.3582H100.505L100.505 90.7002ZM109.93 99.1401C110.075 98.7855 110.111 95.594 109.982 94.4967C109.73 92.3574 109.03 90.1073 108.217 88.8199L107.875 88.2772L108.566 88.2478C111.658 88.116 114.727 91.0246 115.588 94.9018C115.815 95.9235 115.799 97.7533 115.556 98.6093L115.37 99.2645L112.613 99.2913C110.012 99.3166 109.861 99.3081 109.93 99.1401ZM84.1844 82.3728C83.6627 82.156 83.2152 81.958 83.1899 81.9327C83.1646 81.9074 83.3533 81.3907 83.6091 80.7845C84.3755 78.969 84.292 78.7215 82.3058 76.9191C80.7448 75.5026 80.1901 74.7449 79.7754 73.463C79.3018 71.9987 79.4531 70.5508 80.188 69.5158C80.3799 69.2454 80.6638 68.8122 80.8189 68.553C81.1471 68.0043 81.263 67.9658 82.5879 67.9658H83.4953L83.4295 68.3774C83.3508 68.8696 82.9996 69.5863 82.5784 70.1144C82.0904 70.7261 81.9187 71.2897 81.9895 72.0479C82.0865 73.0864 82.427 73.6725 83.4955 74.6405C85.1885 76.1743 85.7683 76.8188 86.1502 77.5915C86.6035 78.5087 86.6924 79.2695 86.4456 80.1196C86.2389 80.8317 85.333 82.7871 85.2154 82.7752C85.1699 82.7708 84.706 82.5895 84.1844 82.3728ZM90.9288 79.9944C90.4576 79.8007 90.0385 79.6103 89.9976 79.5711C89.9566 79.5319 90.1258 79.0252 90.3736 78.4453C90.8958 77.2227 90.9456 76.7202 90.6046 76.1134C90.4817 75.8948 89.7446 75.1363 88.9666 74.4279C87.3862 72.989 86.9711 72.4111 86.5333 71.0403C86.1476 69.8326 86.1984 68.5392 86.6681 67.613C86.7525 67.4467 87.0355 67.0158 87.2971 66.6554C87.5587 66.2951 87.8011 65.9208 87.8357 65.8238C87.8839 65.6885 88.0131 65.6474 88.3909 65.6474C88.6617 65.6474 89.1621 65.6182 89.5029 65.5826C90.1073 65.5195 90.1225 65.5237 90.1219 65.759C90.1208 66.2398 89.9046 66.7584 89.3659 67.5725C88.6719 68.6214 88.5711 68.9266 88.6563 69.7224C88.7605 70.6956 89.1083 71.3265 89.9915 72.1449C91.9773 73.985 92.5027 74.5594 92.852 75.2717C93.1637 75.9075 93.1967 76.058 93.1945 76.8342C93.1916 77.639 93.1578 77.7772 92.6471 79.0287C92.2643 79.9667 92.055 80.3616 91.9439 80.3553C91.8568 80.3509 91.4001 80.188 90.9288 79.9944ZM98.3377 78.4913C97.8942 78.3079 97.4087 78.1131 97.2588 78.0584L96.9864 77.9589L97.3889 77.0196C98.2596 74.9873 98.2181 74.8203 96.4393 73.1966C94.7826 71.6844 94.5138 71.3738 94.05 70.4354C93.5061 69.3349 93.3081 68.4992 93.3815 67.613C93.4762 66.4717 93.5676 66.2571 94.6294 64.6875C94.8075 64.4242 94.9662 64.1765 94.9822 64.137C94.9982 64.0975 95.5494 64.0351 96.2071 63.9984L97.4029 63.9315L97.3332 64.3106C97.2359 64.8385 96.9192 65.5317 96.583 65.9518C96.0569 66.6092 95.8681 67.0991 95.8681 67.8067C95.8681 68.8888 96.152 69.4862 97.1174 70.4354C97.5685 70.8789 98.1762 71.438 98.4677 71.6779C99.1579 72.2457 99.9382 73.2837 100.213 73.9994C100.642 75.118 100.487 76.0692 99.5672 77.9564L99.1441 78.8246L98.3377 78.4913Z" fill="white"/>
</svg>
