<svg width="100" height="100" viewBox="0 0 186 187" fill="none" xmlns="http://www.w3.org/2000/svg">
<path d="M87.6487 185.839C77.4677 185.188 68.3731 182.784 55.9866 177.47C48.8355 174.402 44.1577 172.005 40.185 169.373C34.6288 165.692 29.5901 161.457 28.9541 159.934C28.7533 159.453 27.3639 157.804 25.8668 156.27C24.3696 154.736 22.741 153.02 22.2476 152.456C21.7542 151.893 21.2075 151.486 21.0326 151.553C20.6249 151.71 19.2931 150.334 19.511 149.981C19.6015 149.835 19.7744 149.776 19.8954 149.851C20.0164 149.926 19.1198 148.673 17.9031 147.066C16.6832 145.456 15.5154 144.146 15.2998 144.146C14.7572 144.146 14.1906 143.238 14.6667 143.131C14.9117 143.076 14.6491 142.491 13.7493 141.086C13.0558 140.003 12.0519 138.285 11.5184 137.267C10.985 136.25 10.4303 135.461 10.286 135.515C9.95974 135.636 8.42052 132.576 8.71576 132.393C8.83362 132.321 8.37633 130.979 7.69965 129.413C6.9433 127.662 6.43155 126.098 6.37125 125.352L6.27315 124.14L7.52567 126.444C8.21455 127.711 9.30878 129.872 9.95729 131.247C11.9539 135.48 13.2294 137.147 16.4334 139.712C16.9695 140.141 18.0032 141.342 18.7306 142.38C22.7653 148.137 29.9973 155.766 35.889 160.48C40.9027 164.492 50.2586 170.602 55.1672 173.07C58.5454 174.769 67.3023 177.275 73.5141 178.322C80.6578 179.526 90.7135 180.189 97.3611 179.894C99.8952 179.782 102.732 179.739 103.666 179.799C107.605 180.051 112.385 179.901 114.194 179.47C118.001 178.561 121.144 177.11 125.248 174.365C126.448 173.562 128.249 172.436 129.249 171.864C130.249 171.292 130.978 170.823 130.869 170.822C130.76 170.822 129.341 171.3 127.717 171.888C116.342 176 104.829 177.47 91.2988 176.538C84.6935 176.083 82.4771 175.84 78.6891 175.153C72.1166 173.96 66.4608 172.109 59.1684 168.763C50.2717 164.681 45.9674 162.408 44.3199 160.919C43.4107 160.098 42.4498 158.576 42.4242 157.917C42.417 157.745 41.7389 157.285 40.9162 156.894L39.4204 156.184L40.1403 155.954C40.5362 155.827 41.108 155.498 41.4109 155.222L41.9616 154.721L40.8137 153.556C39.6771 152.402 39.2225 152.206 38.5975 152.602C38.2825 152.802 38.4712 153.798 39.1779 155.664C39.3591 156.143 39.3538 156.142 38.7771 155.653C37.4894 154.559 37.3706 154.501 37.5118 155.041C38.226 157.772 25.7747 145.958 24.9656 143.137C24.8384 142.693 24.7343 142.022 24.7343 141.645C24.7343 140.716 22.8963 138.142 20.7193 136.022C19.7605 135.089 18.4336 133.491 17.7704 132.472C13.8259 126.41 10.3273 114.239 9.69477 104.377C9.4968 101.29 9.26125 99.4367 8.93979 98.4357C8.12484 95.898 7.89803 92.7014 8.20916 88.1383C8.91209 77.8287 11.4274 69.0553 16.8671 57.9393C19.268 53.0329 21.2212 49.7614 24.9768 44.3556C26.5106 42.148 27.7988 40.2091 27.8395 40.0469C27.9795 39.4903 24.0191 43.8089 22.2936 46.0945C19.8876 49.2816 17.9577 52.4189 16.0103 56.3088C13.3239 61.6747 11.9624 65.4064 9.08918 75.2775C8.33218 77.8783 7.62439 80.1655 7.51629 80.3602C7.20432 80.9222 6.90548 78.6095 6.95354 76.005C6.99765 73.6178 7.36249 71.9692 9.31247 65.3473C9.80145 63.6868 10.1657 62.159 10.122 61.9524C9.91857 60.9918 6.77362 70.0521 5.45049 75.4104C3.29961 84.1209 2.56587 90.7989 2.55471 101.766C2.55042 106.398 2.46622 109.89 2.36849 109.525C1.46162 106.144 1.23784 89.2889 2.01681 83.0373C2.72364 77.3647 4.38212 69.1748 5.32762 66.688C5.71129 65.6788 5.3574 65.9712 4.83691 67.0934L4.35888 68.124L4.50263 67.154C4.71131 65.7461 7.50879 58.7979 9.67718 54.3019C21.5089 29.7695 39.3395 14.6276 63.2097 8.84172C66.9986 7.92335 75.0756 5.53314 75.4649 5.21511C75.5587 5.13835 74.3311 5.10943 72.7368 5.15053C71.0088 5.19521 69.8381 5.13205 69.8381 4.99431C69.8381 4.47631 71.2631 3.2882 72.1565 3.06132C74.7499 2.40275 75.1478 2.3796 78.2274 2.70804C81.815 3.09067 88.441 2.98096 90.3288 2.50766L91.5413 2.2037L90.6925 2.00208C89.1835 1.64364 76.5615 1.44818 75.953 1.77385C75.6061 1.95953 75.4154 1.97253 75.4154 1.81052C75.4154 1.65135 74.2396 1.5504 72.2024 1.53466C68.5315 1.5063 68.7611 1.38763 74.0817 0.562984C78.6568 -0.146095 85.217 -0.187749 91.6339 0.451575C95.561 0.842811 96.6086 0.87271 98.0039 0.633444C100.161 0.263517 100.891 0.281464 101.469 0.718511C101.728 0.914329 102.11 1.07653 102.318 1.07898C102.526 1.08185 103.623 1.474 104.757 1.95137C106.286 2.59519 107.758 2.97008 110.456 3.40308C122.462 5.32984 133.799 9.77651 143.787 16.4765C148.424 19.5874 152.155 22.6436 157.212 27.4754C158.704 28.901 160.306 30.3264 160.773 30.6432C162.134 31.5665 163.654 33.1197 163.525 33.4552C163.46 33.6251 164.069 34.495 164.879 35.3883C165.688 36.2816 166.35 37.1106 166.35 37.2305C166.35 37.3505 166.559 37.4486 166.815 37.4486C167.092 37.4486 167.639 37.9381 168.169 38.661C168.659 39.3279 169.171 39.8735 169.307 39.8735C169.443 39.8735 169.49 40.0433 169.41 40.2508C169.323 40.4769 169.638 41.133 170.196 41.8877C171.795 44.0529 173.368 46.6275 173.141 46.7077C172.793 46.8306 174.173 48.7784 174.825 49.0851C175.292 49.3045 175.346 49.4089 175.079 49.5741C174.81 49.7403 174.797 49.9014 175.016 50.3456C175.168 50.6543 175.357 51.1414 175.437 51.4279C175.704 52.3881 176.999 53.9381 177.533 53.9381C177.946 53.9381 178.016 54.0455 177.9 54.5051C177.818 54.8324 177.906 55.2682 178.109 55.5357C178.302 55.7907 178.469 55.8902 178.48 55.7568C178.492 55.6235 178.718 56.1691 178.983 56.9693C179.456 58.3992 179.527 58.6646 179.831 60.1217C179.915 60.5218 180.209 61.2584 180.486 61.7585C180.889 62.4871 181.13 62.6679 181.698 62.6679C182.228 62.6679 182.372 62.5764 182.267 62.3042C182.035 61.6988 182.254 61.8898 182.96 62.9082C183.448 63.6122 183.561 63.9595 183.376 64.182C183.197 64.3984 183.221 64.6653 183.458 65.0935C183.642 65.4266 183.797 65.9518 183.801 66.2606C183.806 66.5695 183.927 67.0402 184.069 67.3067C184.255 67.6544 184.252 67.8835 184.058 68.1179C183.872 68.3418 183.866 68.4937 184.04 68.6009C184.179 68.6868 184.413 68.9826 184.561 69.258C184.76 69.6306 184.758 69.7149 184.552 69.5873C184.399 69.4931 184.104 69.5577 183.895 69.7308C183.585 69.9882 183.546 70.3562 183.684 71.7475C183.881 73.7526 183.97 73.9494 184.484 73.5312C184.818 73.2602 184.848 73.2786 184.704 73.6633C184.314 74.7035 184.26 75.3113 184.499 75.9954C184.655 76.4433 184.664 76.7759 184.524 76.8628C184.125 77.1091 184.278 77.9298 184.781 78.2438C185.347 78.5976 185.447 79.279 184.902 79.0698C184.702 78.993 184.539 78.9541 184.539 78.9832C184.539 79.0124 184.865 80.673 185.262 82.6736C186.082 86.8069 186.239 90.7004 185.63 91.7671C185.371 92.22 185.281 93.3392 185.274 96.1926C185.267 99.422 185.21 100.012 184.902 100.012C184.628 100.012 184.538 100.306 184.538 101.204C184.538 101.86 184.426 102.434 184.288 102.48C184.013 102.572 183.462 104.57 183.213 106.377C183.082 107.327 183.12 107.529 183.432 107.529C183.688 107.529 183.811 107.757 183.811 108.232C183.811 108.726 184.054 109.147 184.633 109.655C185.157 110.116 185.386 110.487 185.266 110.681C185.163 110.849 185.125 111.381 185.182 111.864C185.303 112.888 184.918 113.683 184.566 113.136C184.14 112.475 183.811 113.152 183.811 114.689C183.811 115.886 183.737 116.215 183.487 116.119C183.309 116.051 182.938 116.191 182.661 116.43C182.207 116.824 180.563 120.651 179.414 123.992C179.166 124.711 178.864 125.421 178.743 125.569C178.621 125.716 177.547 127.583 176.357 129.717C175.166 131.851 173.483 134.688 172.616 136.022C171.748 137.356 170.842 138.829 170.601 139.296C170.36 139.763 170.096 140.265 170.015 140.413C169.563 141.237 165.522 147.039 163.961 149.104C155.224 160.669 144.15 169.958 131.429 176.391C120.117 182.113 109.22 185.106 96.9941 185.85C92.6215 186.116 91.9618 186.114 87.6487 185.839ZM80.9712 183.327C80.8078 183.164 74.6568 182.41 74.5292 182.538C74.4291 182.638 75.0147 182.75 78.3254 183.269C79.202 183.406 81.0917 183.448 80.9712 183.327ZM120.644 171.44C126.691 169.843 133.734 166.994 139.292 163.896C141.963 162.407 147.37 158.862 148.527 157.839C149.336 157.126 149.497 157.047 143.972 160.066C142.667 160.779 141.511 161.363 141.403 161.363C141.295 161.363 141.008 161.582 140.766 161.849C140.524 162.117 140.207 162.311 140.062 162.281C139.916 162.251 138.148 163.064 136.132 164.089C132.129 166.125 128.703 167.583 124.399 169.085C121.423 170.123 116.519 172.272 117.124 172.273C117.324 172.273 118.908 171.898 120.644 171.44ZM101.605 170.366C101.605 170.28 101.086 170.253 100.453 170.305C99.6853 170.368 99.453 170.454 99.7565 170.563C100.27 170.748 101.605 170.605 101.605 170.366ZM104.057 169.067C104.86 168.638 105.749 168.424 107.209 168.305C108.635 168.189 109.624 167.955 110.516 167.522C111.819 166.89 112.307 166.27 111.158 166.707C110.81 166.839 109.91 166.987 109.157 167.035C108.404 167.084 105.66 167.273 103.06 167.456L98.3311 167.789L100.756 167.91L103.181 168.031L100.999 168.359C99.7982 168.54 98.4342 168.765 97.9674 168.86L97.1186 169.032L97.8461 169.446C98.9698 170.085 102.558 169.866 104.057 169.067ZM83.4178 169.26C83.4178 168.901 83.1632 168.788 81.7203 168.51C80.9252 168.357 80.8967 168.372 81.2691 168.759C81.4878 168.987 82.0334 169.259 82.4816 169.365C82.9298 169.471 83.3238 169.569 83.3571 169.583C83.3905 169.595 83.4178 169.451 83.4178 169.26ZM95.7849 167.636C94.6513 167.524 92.6871 167.328 91.42 167.201L89.1164 166.969L91.6176 167.078C94.4359 167.201 94.8178 166.844 92.1547 166.577C90.1467 166.375 87.8683 166.822 88.2934 167.335C88.6208 167.729 89.7428 167.824 94.2087 167.832C97.6229 167.839 97.7197 167.826 95.7849 167.636ZM121.152 167.035C122.36 166.225 123.464 165.115 123.262 164.914C123.176 164.828 122.754 164.758 122.323 164.758C121.471 164.758 121.247 165.068 121.247 166.246V166.967L120.701 166.377C120.209 165.845 120.025 165.801 118.84 165.939L117.524 166.091L118.424 166.879C119.512 167.833 119.928 167.856 121.152 167.035ZM84.1452 167.312C84.1452 167.008 83.0951 166.692 82.6205 166.853C82.1163 167.024 82.1277 167.045 82.8115 167.201C83.7629 167.419 84.1452 167.451 84.1452 167.312ZM103.302 166.71C104.386 166.517 104.382 166.515 102.817 166.489C101.95 166.474 101.077 166.568 100.877 166.697C100.424 166.99 101.69 166.996 103.302 166.71ZM78.7897 164.617C78.956 164.45 78.7258 164.325 78.0889 164.236C77.6547 164.175 77.4636 164.278 77.398 164.608C77.3204 164.999 77.4066 165.04 77.9978 164.891C78.3775 164.796 78.7338 164.672 78.7897 164.617ZM133.056 163.149C132.898 162.991 131.242 163.625 130.686 164.056C130.242 164.4 130.47 164.354 131.614 163.867C132.448 163.513 133.097 163.19 133.056 163.149ZM69.2319 162.564C68.9652 162.442 68.1444 162.124 67.408 161.856C66.6717 161.588 65.4713 161 64.7406 160.548C62.5633 159.202 60.1384 157.946 60.1384 158.164C60.1384 158.506 61.1696 159.337 62.3208 159.924C63.9837 160.77 68.9419 162.789 69.3531 162.787C69.5894 162.784 69.5469 162.707 69.2319 162.564ZM62.3208 158.577C62.3208 158.513 61.6388 158.118 60.8052 157.7C59.0853 156.838 59.084 156.985 60.8024 157.993C61.9418 158.662 62.3208 158.808 62.3208 158.577ZM40.584 145.496C39.9357 144.757 39.3169 144.15 39.209 144.149C39.1012 144.146 39.5863 144.797 40.2872 145.593C40.9881 146.39 41.6069 146.996 41.6622 146.94C41.7177 146.885 41.2324 146.235 40.584 145.496ZM37.1015 138.347C37.1015 138.105 35.2209 135.658 35.0347 135.658C34.6875 135.658 35.0246 136.442 35.8002 137.437C36.6364 138.51 37.1015 138.836 37.1015 138.347ZM42.834 126.323C42.6194 125.764 42.2121 126.097 42.3704 126.702C42.4576 127.036 42.5822 127.122 42.7435 126.961C42.8767 126.828 42.9174 126.541 42.834 126.323ZM24.578 118.259C24.2889 117.095 23.767 116.016 23.4927 116.016C23.2173 116.016 23.2505 116.152 23.9547 117.895C24.4199 119.046 24.8335 119.288 24.578 118.259ZM21.9443 109.326C21.4656 107.747 21.0106 106.397 20.9332 106.325C20.7754 106.18 20.9923 107.986 21.3551 109.839C21.6035 111.108 22.5567 112.945 22.7204 112.47C22.7721 112.32 22.4229 110.905 21.9443 109.326ZM31.6508 108.337C31.5068 107.185 31.5676 106.774 32.0281 105.791C32.4067 104.983 32.7227 104.619 33.0465 104.619C33.3781 104.619 33.4721 104.505 33.3664 104.229C33.2842 104.015 32.936 102.733 32.5927 101.38C32.0599 99.2806 31.992 98.6188 32.1285 96.8593C32.2608 95.1549 32.1809 94.281 31.6667 91.8099C31.1001 89.0866 31.0769 88.7599 31.4058 88.1239C31.8918 87.1841 31.8651 87.0823 31.1777 87.2548C30.6292 87.3924 30.5698 87.3117 30.3143 86.0811C30.0059 84.5956 30.165 83.4292 31.1153 80.2057C31.73 78.1206 31.7127 77.1362 31.0208 74.8269C30.7227 73.8321 30.7087 73.8224 29.5658 73.8224H28.4118L28.1687 74.9743C28.035 75.6078 27.6303 77.926 27.2694 80.1259L26.6133 84.1257L27.028 87.037C27.2561 88.6382 27.6497 91.5691 27.9026 93.5502C28.4242 97.635 28.8654 100.096 29.5938 102.984C30.3061 105.807 31.519 109.711 31.6837 109.711C31.76 109.711 31.7453 109.093 31.6508 108.337ZM30.0692 91.5443C30.0692 91.0707 30.3727 90.5636 30.5796 90.6914C30.9396 90.914 30.8233 91.767 30.4329 91.767C30.2329 91.767 30.0692 91.6667 30.0692 91.5443ZM14.6565 52.9965C15.2515 51.8119 15.6709 50.7752 15.5885 50.6928C15.1672 50.2715 14.7157 50.7298 13.68 52.6298C12.7666 54.3054 12.6089 54.7586 12.8792 54.9298C13.0644 55.0471 13.2966 55.1447 13.3953 55.1467C13.494 55.1496 14.0616 54.1812 14.6565 52.9965ZM93.6025 2.28685C93.1247 1.97811 92.563 1.97811 92.7538 2.28685C92.8363 2.42017 93.1427 2.52767 93.4349 2.52563C93.8669 2.52276 93.8982 2.47794 93.6025 2.28685ZM73.6602 176.468C73.9619 176.41 74.3984 176.412 74.6302 176.472C74.862 176.533 74.6153 176.581 74.0818 176.578C73.5483 176.575 73.3586 176.526 73.6602 176.468ZM70.3231 176.154C69.9593 176.036 70.3473 176.011 71.2931 176.09C72.16 176.163 72.9148 176.262 72.9703 176.31C73.166 176.479 70.9218 176.346 70.3231 176.154ZM37.8874 160.025C36.7883 159.289 35.889 158.628 35.889 158.555C35.889 158.39 36.0907 158.51 38.2533 159.958C39.7556 160.964 40.2371 161.363 39.9486 161.363C39.9141 161.363 38.9866 160.761 37.8874 160.025ZM2.31845 112.925C2.23095 112.558 2.10268 112.067 2.03334 111.833C1.95558 111.571 2.03763 111.409 2.2465 111.409C2.44988 111.409 2.6857 111.846 2.83542 112.5C3.02891 113.346 3.01672 113.591 2.78129 113.591C2.61419 113.591 2.40594 113.291 2.31845 112.925ZM0.72748 104.154C0.72748 104.032 0.661175 103.759 0.580278 103.548C0.483758 103.296 0.567387 103.164 0.822779 103.164C1.07678 103.164 1.21247 103.375 1.21247 103.77C1.21247 104.104 1.10335 104.377 0.969969 104.377C0.836646 104.377 0.72748 104.276 0.72748 104.154ZM0 92.2318C0 90.9659 0.079765 90.5404 0.303122 90.6143C0.49503 90.6777 0.63253 91.3078 0.677926 92.3319C0.736784 93.6602 0.682225 93.9494 0.374821 93.9494C0.0720003 93.9494 0 93.6195 0 92.2318ZM15.0346 35.8861C15.0346 35.5328 16.089 34.077 16.2657 34.1863C16.4918 34.3261 15.5268 35.9853 15.2165 35.9905C15.1164 35.9933 15.0346 35.9452 15.0346 35.8861ZM22.62 27.7198C22.4025 27.5023 22.6243 27.1758 23.5639 26.3311C26.371 23.8073 26.7486 23.8205 24.4144 26.3609C23.2594 27.6179 22.8376 27.9373 22.62 27.7198ZM32.4941 19.4997C33.6799 18.4313 37.5566 15.6721 40.0114 14.1491C42.5031 12.6034 46.7084 10.5766 51.2874 8.71477C54.9873 7.21033 55.7807 6.79078 57.5633 5.39562C59.0243 4.25215 59.9392 4.18654 61.0851 5.14317L61.8923 5.81703L59.7422 6.82235C58.5597 7.37525 55.5838 8.67124 53.129 9.7023C48.7992 11.5209 41.6265 15.0013 34.9191 18.5381C32.2806 19.9294 31.8101 20.116 32.4941 19.4997ZM47.8135 7.61608C47.8615 7.47213 48.2535 7.13101 48.6847 6.858C49.2876 6.47629 49.4687 6.44079 49.4687 6.70429C49.4687 6.89273 49.0766 7.23387 48.5975 7.46236C48.1183 7.69086 47.7655 7.76004 47.8135 7.61608ZM58.0529 3.94497C57.8101 3.5522 58.2077 3.34563 60.0587 2.90264C62.7226 2.26512 62.9532 2.58097 60.4446 3.43121C59.0404 3.90712 58.1479 4.09881 58.0529 3.94497Z" 


fill="rgb(255 65 82)"

/>
<path d="M108.384 124.177C107.006 123.844 105.221 122.898 103.849 121.774C103.165 121.213 102.449 120.629 102.257 120.475C101.932 120.215 101.819 120.209 100.585 120.39C99.8565 120.496 98.3522 120.577 97.2418 120.57C95.5818 120.56 94.957 120.488 93.7273 120.169C91.9449 119.707 89.3522 118.464 87.9557 117.403C82.9631 113.608 80.4002 106.901 81.8251 101.358C82.931 97.057 86.2947 93.3437 91.7534 90.3982C92.6879 89.8939 93.0555 89.6172 93.0213 89.4439C92.9909 89.2905 92.8234 89.1999 92.5696 89.1999C92.2326 89.1999 92.102 89.0713 91.7758 88.4176C91.2115 87.2869 90.1854 86.2158 89.2085 85.7378C88.5403 85.4109 88.1044 85.3148 87.0845 85.2694C85.726 85.2092 85.5718 85.2444 82.6793 86.2812C79.8002 87.313 77.4881 86.7352 76.4059 84.7134C76.1561 84.2468 76.0851 83.852 76.0831 82.9188C76.0802 81.855 76.1319 81.6312 76.5439 80.8999C77.4619 79.2705 79.093 78.4288 81.3147 78.4377C82.7334 78.4434 83.6497 78.6715 85.0535 79.3682C86.7492 80.2098 88.9508 82.1815 90.5718 84.3102C91.0332 84.9162 91.3779 85.2353 91.5364 85.2034C91.8056 85.1493 91.8112 84.9421 91.5807 83.5918C91.3785 82.4076 91.6257 80.7054 92.2485 78.9941C93.4321 75.7415 93.7768 74.6423 93.9489 73.5719C94.316 71.2886 94.4259 70.8896 94.8488 70.3058C95.7859 69.0121 97.7069 68.1425 99.485 68.2068C100.364 68.2386 100.461 68.2126 100.502 67.9355C100.534 67.7211 100.444 67.6012 100.203 67.5367C98.7269 67.1413 96.1114 67.9726 94.8439 69.2401C94.5177 69.5663 94.2496 69.7827 94.2482 69.721C94.241 69.3716 93.7698 67.4405 93.5572 66.8839L93.3078 66.2307L93.8167 65.6996C95.168 64.2896 96.6542 63.6675 98.6625 63.6712C100.252 63.6741 101.504 64.0199 102.85 64.8272C104.654 65.9096 105.588 67.126 106.521 69.61C106.841 70.4617 107.399 71.752 107.762 72.4774C108.948 74.8488 109.291 76.6376 108.69 77.3025C108.301 77.7323 107.827 77.6852 106.364 77.0712C102.855 75.5982 101.492 75.3215 99.7438 75.727C96.9487 76.3752 95.0702 78.2999 94.4762 81.1242C94.0321 83.2352 94.3477 86.8158 95.1083 88.2985L95.4017 88.8704L98.6771 88.9008C102.221 88.9336 104.217 89.1868 106.888 89.9423C111.328 91.1984 114.05 93.8789 115.136 98.0646C115.904 101.027 115.753 105.701 114.791 108.77C114.307 110.31 113.164 112.541 112.208 113.808C110.725 115.775 108.231 117.875 106.434 118.67L105.628 119.026L105.549 118.545C105.506 118.28 105.453 117.833 105.431 117.551C105.382 116.902 105.07 116.788 104.859 117.341C104.643 117.907 104.803 118.938 105.254 119.879C106.618 122.725 110.953 123.792 114.287 122.102C115.357 121.56 115.933 121 117.071 119.394C118.967 116.72 120.319 115.921 121.859 116.565C122.231 116.72 122.373 116.865 122.336 117.051C122.291 117.276 122.148 117.308 121.37 117.265C119.847 117.181 119.175 117.698 117.804 120.012C116.057 122.96 113.543 124.443 110.357 124.406C109.765 124.401 108.877 124.296 108.384 124.177ZM89.6849 80.6517C88.4131 78.668 86.7984 76.4805 85.2907 74.6987C82.97 71.956 79.4231 68.7217 78.8489 68.8246C78.3823 68.9083 78.5532 69.3375 79.2531 69.8396C81.9104 71.746 85.754 76.024 88.5183 80.1521C89.6959 81.9106 89.7597 82.1258 88.8471 81.2605C87.6097 80.0873 86.7985 79.4846 85.5769 78.831C83.0054 77.4551 80.5598 77.2891 78.3175 78.3384L77.3769 78.7786L76.2839 78.4916C75.6828 78.3338 73.9883 78.033 72.5184 77.8232C68.3908 77.234 66.9977 76.681 65.4083 75.0005C64.5898 74.1349 63.6866 72.4384 63.5077 71.43L63.4063 70.8584L64.1767 71.673C65.0813 72.6295 66.3083 73.3257 67.6449 73.6407C69.5554 74.0911 71.99 73.836 73.4702 73.0304C74.6558 72.3851 74.7975 71.9009 75.0411 67.6647C75.2542 63.9585 75.4009 63.247 76.1916 62.0855C76.7446 61.273 77.5993 60.6504 78.7251 60.24C79.7012 59.8841 79.8509 59.7478 79.5988 59.4441C79.2149 58.9814 76.6225 60.2922 75.8118 61.3588C74.7648 62.7363 74.526 63.7282 74.3628 67.377C74.2891 69.0283 74.1498 70.6923 74.0535 71.0748C73.7149 72.4196 72.6961 72.9557 70.2386 73.0824C68.5184 73.1712 67.5301 73.0038 66.3431 72.4224C64.7553 71.645 63.3107 69.7658 63.505 68.7304C63.6553 67.9289 64.4252 67.3575 66.8436 66.2524C68.0848 65.6852 69.2647 65.1134 69.4656 64.9818C69.6665 64.8502 70.12 64.256 70.4735 63.6613C72.4035 60.4139 74.8748 58.3621 77.7196 57.6452C78.8363 57.3637 80.8564 57.3603 82.1647 57.638C86.4326 58.5425 91.2662 62.8668 92.9253 67.2645C93.3981 68.5178 93.4151 68.6395 93.4184 70.8057C93.4213 73.3677 93.1727 74.6073 92.123 77.2363C91.3794 79.0987 91.1202 79.9486 90.8986 81.2503L90.7244 82.2733L89.6849 80.6517Z" fill="white"/>
</svg>
